<?xml version="1.0" encoding="utf-8"?>
<svg version="1.1" id="Layer_1" xmlns="http://www.w3.org/2000/svg" xmlns:xlink="http://www.w3.org/1999/xlink" x="0px" y="0px"
	 viewBox="0 0 595 842" style="enable-background:new 0 0 595 842;" xml:space="preserve">
<style type="text/css">
	.st0{fill:none;}
</style>
<g>
	<path d="M174,152.5c0.2,1.8-1.3,2-2.3,2.6c-7.5,4.1-13.2,9.8-16.3,17.8c-2.1,5.3-2.6,11-3.7,16.6c-0.7,3.8-1,7.6-1.1,11.4
		c-0.3,8.5,4.7,12.8,11.8,15.8c2.7,1.1,5.7,1.4,8.7,1.4c1.7,0,3.5,0.2,5.3,0.3c-1.3-1.2-2.6-2.4-4-3.5c-5.1-4-9-9-12.5-14.3
		c-5.3-7.9-2.2-17.1,3.1-23c4.1-4.5,9.1-5,14.7-4.4c6.1,0.6,11,3.4,15.5,7.3c1.6,1.4,2.4,3.2,3,5.1c1.6,4.8,3.1,6.4,6.1,6.3
		c5-0.2,8.4-2.9,9.5-7.3c1.4-5.7-0.1-10.6-3.8-14.9c-0.5-0.6-1.1-1.1-1.5-2.6c3.1,2.7,4.9,5.6,5.8,8.9c0.7,2.7,1.1,5.4,0.3,8.3
		c-1.5,5.5-5.3,8.6-10.9,8.5c-2.4-0.1-4.9-1.8-5.6-4.8c-1.9-8.5-10.1-11.6-16.5-12.2c-2.2-0.2-4.1,0.5-5.7,2
		c-3,2.9-4.6,6.5-5.6,11.1c2-1.8,3.6-3.3,5.2-4.7c4-3.4,9.8-3.5,13.1-0.4c1.7,1.6,2,3.3,1,5.4c-0.8,1.7-1.7,3.4-2.4,5.2
		c-1.7,4.2-1.3,7.7,2,10.5c4.2,3.6,8.6,6.9,14.6,7c2.7,0.1,4.7-0.4,6.4-2.7c1.6-2.2,3.8-4,4.8-6.7c0.2-0.5,0.5-1.2,1.9-1.3
		c-1.9,2.1-1.7,5.1-4.4,6.4c-0.1,0.1-0.3,0.2-0.3,0.3c-1.2,2.2-2.7,4.1-5.4,4.5c-4.2,0.6-8.1-0.1-11.7-2.3c-1-0.6-1.9-1.2-3.3-2.1
		c0.7,1.5,1.9,2.9-0.3,3.2c0.2,1,0.8,0.7,1.2,0.8c1.8,0.1,2.1,1.2,1.2,2.4c-1.5,2.1-3.2,4-3.7,6.7c-0.2,1-0.8,2.4-2.8,2.8
		c6.8,3.4,13.6,3.2,20.2,4.9c-4.8-4.5-7-10.5-10-16.1c0.2-0.1,0.4-0.2,0.6-0.4c1.3,2.4,2.7,4.8,3.9,7.4c0.7,1.5,1.5,3,2.5,4.3
		c2.2,2.8,6.7,4,10.2,2.6c0.6-0.2,0.9,0,1.3,0.2c1.2,0.6,2.5,0.4,3.8,0.4c1.6,0,2-0.6,1.8-2.2c-0.4-3.6-0.9-7.2,0.9-10.6
		c0.4-0.9-0.1-1.5-0.3-2.3c-0.3-1.2-0.6-2.4,0-3.5c0.4-0.7,0.9-1.5,1.8-1.4c0.8,0,0.5,1,0.8,1.5c0.7,1.1,1.4,2.3,2.4,3.8
		c0-2,0.1-3.4,0-4.9c-0.1-1.3,0.2-2.4,0.8-3.4c1-1.7,1.5-3.3-0.3-5c2.2,1.1,2.4,2.7,1.3,4.6c-1.2,1.9-1.5,4-1.3,6.2
		c0.4,3.9,1.8,5.2,6.2,5.8c0.4,0.1,1-0.3,1.4,0.3c-3.4,0.1-6.7-0.1-9.5-2.2c-1.4-1.1-2,0.1-2.4,0.9c-1,1.6-1.4,3.4-1.3,5.3
		c0.1,2,0,4,0.6,5.9c0.5,1.4,0,2.3-1.5,2c-3.3-0.7-6.7,0.5-10-0.4c-1-0.3-1.9,0.1-2.8,0.7c0.2,0.9,0.9,1.5,1.6,1.9
		c1.9,1.1,3.6,2.4,3.3,5c-0.1,1.2,1,1.3,1.8,1.4c4.2,0.7,8.5,1.5,12.8,2.1c3.9,0.5,7.4,1.9,10.7,3.9c1.5,0.9,2.1,0.8,2.7-1
		c1-3.2,2.9-5.8,4.6-8.6c0.5-0.8,1.3-1.5,1.3-2.6c-1.9-0.3-3.8,0.1-5.7,0.4c-4.8,0.6-6.8-1-6.9-5.7c0-1.8-0.9-3.7,0.6-5.3
		c0.7,1.1-0.1,2.1,0,3.2c0.1,2.1,0.5,2.8,2.9,2.8c6.1,0,11.4-2.5,16.8-4.9c1.5-0.7,3-2.2,3.2-4.2c0.2-2.2,0-4.4,0-7.3
		c-2.1,2.8-4.3,4.2-6.8,5c-5.4,1.8-11.2,2.5-16.2,5.5c0.9-1.5,2.7-1.8,3.7-2.9c1.2-1.3,3,0.1,4.1-1.5c-2.3-0.9-4.6-1.8-6.9-2.8
		c-3.5-1.6-4.7-3.6-4.3-7.4c0.1-1.2,0.5-1.9,2-2c3.2-0.3,6.4,0,9.5-0.7c4.3-1.1,8.4-2.2,11.5-5.8c1.5-1.8,3.4-3.3,5-5.1
		c1.8-2.1,3.9-2.6,6.4-1.4c0.8,0.4,1.8,0.6,2.6,0.9c1.2-4.9,3.3-9,6.7-12.7c-2.1-0.5-2.1-1.2-1-2.8c0.9-1.2,1.6-2.6,2.7-3.5
		c0.9-0.8,1.3-1.3,0.2-2.4c-5-5.1-4.8-11.7,0.2-16.8c2.3-2.3,4.8-4,8.6-2.5c-0.8-4.8-3.4-8.5-3.9-12.9c0.4,0.1,0.8,0.1,1,0.6
		c1.2,2.6,1.4,5.5,2.6,8.1c0.7,1.5,1.5,3.3,1.1,5.3c-2.3-0.9-4.5-1.6-6.7,0.1c-2.7,2.1-4.6,4.6-5.5,7.9c-1.2,4.4,1.6,10,5.7,11
		c-0.1-1.6-0.2-3.1-0.3-4.6c-0.1-1.9,0-3.7,1.1-5.3c0.7-1.1,1.7-1.2,2.6-0.3c0.9,0.8,1.1,1.8,0,2.6c-0.4,0.3-0.9,0.8-1.4,0.9
		c-2.3,0.5-1.8,2.1-1.3,3.5c1.4,3.8,4.3,4.5,7.5,2c0.3-0.3,0.5-0.9,1.2-0.5c0.2,2.2,1.9,3.5,3.4,4.9c2.2,2.2,3.6,2,4.9-1
		c0.7-1.6,1-3.4,1.6-5.5c1.3,1.9,2.4,3.4,3.9,4.5c1.3,0.9,2.5,0.7,3.1-0.8c0.5-1.2,0.7-2.6,0.8-4c0.1-1.3,0-2.5-1.9-2.7
		c-0.8-0.1-1.5-0.4-2-1.2c-0.5-0.9-0.6-1.9,0.3-2.6c0.9-0.8,1.4,0.1,2,0.6c1.1,1,1.7,2.2,2.2,3.6c0.5,1.8,0,3.5-0.4,5.2
		c-0.3,1.4,0.2,2,1.6,1.5c1.8-0.7,3.3-1.7,4.4-3.5c1.9-3,2.3-6.4,1.8-9.5c-0.4-2.8-2.1-5.5-5.5-6.4c-2.7-0.7-5.3-1.3-8.2-0.8
		c1.2-1.2,2.3-2.3,2.9-3.8c1.7-4.4,2.5-8.9,1.7-13.6c-0.4-2.3-0.8-4.6-2.2-6.5c-0.9-1.1-1.9-2-3.4-1.8c-1.4,0.2-1.9,1.3-2.4,2.4
		c-0.4,1-0.7,2.1-1,3.2c-1.1,3.7-2,7.4-4.7,10.3l0,0.1c1.8-4.3,3.8-8.6,4.6-13.3c0.3-1.6,1.2-3.1,3.1-3.3c2-0.3,3.6,0.6,4.7,2.3
		c2,3.3,2.6,7,2.5,10.8c-0.2,4.2-1.2,8.3-3.2,12.2c0.8,0.1,1.3,0.2,1.7,0.3c5,0.5,8.9,2.3,10.4,7.6c0.5,1.7,1.5,1,2.5,0.2
		c5-4.2,6.8-9.9,6.9-16.2c0.1-3.5-0.9-6.6-3.2-9.3c-1.2-1.5-2.3-3.1-3-4.9c-1.4-3.3-1.9-6.8,0.5-9.8c2.3-2.8,5.5-2,8.5-1.3
		c6.9,1.7,10.7,6.3,12.3,12.9c0.3,1.3,0.2,2.8,0.3,4.2c3.4-0.9,5.2,0.3,5.7,3.5c0.8,4.6-1.4,7.8-5,10c-4.4,2.7-7,6.4-7.2,11.6
		c-0.1,1.8-0.1,3.7,0.1,5.5c0.9,6.1,1.7,12.4,9.2,14.2c-5.5-0.5-11.2-5.1-13-10.2c-1.7-4.9-1.7-9.7-0.4-14.6c0.5-1.9,0.6-3.9,0.7-6
		c-1.9,2.3-3.7,4.6-5.6,6.9c-1.9,2.4-4.2,3.9-7.1,4.5c-1.5,0.3-2.2,1-2.4,2.6c-0.3,2.1-1,4.1-2,6.1c-0.9,1.8-2.3,2.9-4.3,3.6
		c1.3,1.4,2.6,1.9,3.9,2.5c2.3,1.1,2.3,1.4,0.5,3.3c-0.3,0.3-0.5,0.6-0.7,0.9c0.9,0.7,1.7,1.3,2.4,2c-5.4-2.5-11-3.8-16.9-3
		c-2,0.3-4,0.5-6,0.4c-4-0.2-7.6,1-11.1,2.6c-2.8,1.2-4.8,3.4-5.3,6.6c-0.1,0.7-0.3,1.6,0.9,1.4c4.3-0.9,8.6-0.7,12.9-1
		c6.5-0.4,13.1-0.4,19.6,0.2c2.5,0.3,5.1,0.3,7.6,0.5c1.8,0.1,1.9-0.7,1.2-2c-0.9-1.9-2.5-3.5-3-5.7c2.2,2.6,4.1,5.4,5,8.8
		c0.4,1.4,1.1,2.8,2.8,3.3c3.7,1,6.7,3.3,9.6,5.7c2.4,1.9,4.9,3.7,7.6,4.9c5.6,2.4,10.9,1.8,15.8-1.8c1.7-1.3,3.4-1.7,5.3-0.4
		c0.6,0.5,1.2,0.2,1.8,0c2.7-0.7,5.7-2.1,8.3-0.7c3.9,2,7.6-0.3,11.4,0.5c2.9,0.6,5.5,1.3,7.9,3.1c1.4,1,2.6,2.9,4.7,2
		c2.9-1.2,5.8-2.6,6.7-6c1.2-4.5-0.6-6.7-5.2-7c-0.5,0-1,0-1.4,0c-3.4-0.2-5.1-1.5-5.6-4.1c-0.5-2.9,1.2-5.7,3.9-6.9
		c0.7-0.3,1.6-0.3,1.6-1.5c-0.1-1-0.7-1.6-1.6-1.9c-2.9-1.1-5.7-0.3-8.5,0.2c-2,0.4-3.9,1.3-5.8,2.1c-4.8,2.1-9.8-0.9-10-6.2
		c-0.4-11.5,5.3-17.9,15.5-21.8c4.1-1.6,8-1.6,12.1-0.4c4.1,1.1,8.5,1.4,12.5,2.9c4.3,1.6,7.8,4.2,11.2,7.2
		c6.9,6.2,10.9,14,10.8,23.1c-0.1,9.3-1.5,18.4-6.2,26.8c-1.8,3.2-4.9,5.3-7.1,8.1c-0.5,0.6-1.1,1.2-1.9,2c3.3,0.3,4.7,2.1,4.8,5
		c0,0.5,0.2,0.8,0.8,1c3.7,1.6,6,5.9,5.3,9.9c-0.5,2.8-1.5,5.3-3.5,7.4c-2.4,2.5-4.8,5.1-6.5,8.3c-2.3,4.6-1.2,8.9,0.7,13.1
		c1,2.3,5.2,2.1,7.2,0c1-1.1,1.7-2.5,1.9-4c0.4-2.8-0.2-3.6-3-3.9c-0.8-0.1-1.8,0.2-2.2-0.7c-0.4-0.9,0.5-1.6,1-2.3
		c1.7-2.2,4-2.4,6.2-0.6c0.4,0.3,0.9,0.7,1.6,1.2c0.9-3.4,2.6-6.2,4.6-8.9c4.5-6.1,10.4-8.5,17.8-6.9c8.4,1.8,15.3,5.8,18,14.6
		c2.2,7.2,1.8,14.3-3.4,20.5c-1.3,1.6-3.2,2.3-5.1,3.4c4.3,2.9,8,6.3,11,10.4c8.4,11.4,12.7,24,11.1,38.4c-0.4,3.4,0.6,7,1.1,10.4
		c0.8,6,0.3,12,0.4,18c0.2,8.8-0.1,17.6-1.7,26.2c-2.2,12.4-5.6,24.3-11.4,35.6c-2.7,5.2-6.3,10-8.5,15.5c-1.4,3.5-2.6,7-2,10.9
		c0.3,1.8,0.6,2.5,2.8,2.2c5.4-0.9,9.6,1.9,13.5,5.4c1.1-4.3,1.5-8.8,3.5-12.8c2.3-4.7,4.8-9.3,9.3-12.6c4-3,9.6-0.4,10.4,4.8
		c0.6,4.3,0.3,8.6-1.2,12.8c-1.2,3.4-2.3,6.8-3.4,10.2c11.2,0.1,13.5,5.9,13.6,17.4c2.6-5.7,5.4-11.3,7-17.5
		c0.3,0.2,0.5,0.2,0.5,0.3c0.2,6.3,2.6,12.3,3,18.6c0.8,10.4-1.7,20.5-3.8,30.6c-2.4,12-6.7,23.3-11.5,34.5c-3,7-6.5,13.7-10.1,20.3
		c-5.5,10-12.6,18.9-19.8,27.5c-9.2,10.9-20,20.1-30.8,29.3c-5.5,4.7-10.7,9.5-16.1,14.3c-0.1,0.1-0.3,0.2-0.4,0.3
		c-3,2.6-2.9,2.6-0.3,5.5c2.2,2.4,4.4,4.8,6.5,7.3c1,1.2,0,2.4-0.6,3.5c-1.7,3-4.3,5.4-6.5,8c-4.9,5.8-9.8,11.6-15.4,16.7
		c-7.5,6.8-15.7,12.5-24.5,17.5c-7.4,4.2-14.9,8.3-22.8,11.6c-8,3.3-16.1,6.5-24.9,7.3c-3.5,0.3-6.9,1.2-10.3,2
		c-6.5,1.6-13.2,1.3-19.8,1.8c-5.6,0.4-11.1,0.7-16.7,1.2c-6.4,0.6-12.8,0.1-19-1.6c-9.8-2.6-19.8-4.1-29.7-5.9
		c-5.2-0.9-10.4-2.3-15.6-3.8c-12.9-3.7-25.2-8.9-37.1-14.9c-4.6-2.3-8.7-5.6-13-8.5c-0.9-0.6-1.9-1.3-1.6-2.7l-0.1,0
		c8.4,6.7,17.3,12.4,27.5,16c3.3,1.2,6.3,2.7,9.3,4.3c4.5,2.4,9.7,2.5,14.4,4.2c9.3,3.5,19.1,4.9,28.9,6.5c7.5,1.2,15,3.2,22.4,4.7
		c5.8,1.2,11.7,0.8,17.6,0.3c6-0.5,11.9-1.5,17.9-1.3c7.2,0.2,14.1-1.4,21.1-2.5c8.3-1.3,16.3-3.6,24.2-6.3c3.6-1.2,7-3.1,10.5-4.6
		c8.1-3.5,15.7-7.9,23.1-12.6c11.4-7.2,21.2-16.4,29.8-26.8c2.2-2.7,4.6-5.3,6.9-7.9c1.3-1.5,2.4-3,1.8-5.2c-2,0.1-3.7,0.8-5.2,2.2
		c-3.3,3.3-6.8,6.2-11,8.4c-1.9,1-3.9,1.8-6.2,1.8c1.4,2.7,4,4.1,4.9,6.9c-7.9-4.4-11.5-13.1-19.1-18.8c1,2.3,2,3.9,3.2,5.3
		c2.4,2.9,4.2,6.2,5.2,9.9c0.2,0.6,0.7,1.4,0,2c-0.7,0.5-1.5,0.3-2.1-0.1c-3-1.6-5.4-3.9-8.1-5.9c-1.9-1.4-3.7-3-5.9-4.8
		c0.4,2.3,1.5,3.7,2.6,5c3.6,4.7,7.3,9.3,10.9,14c0.4,0.6,0.9,1.1,1.3,1.7c0.3,0.4,0.4,0.9,0.1,1.3c-0.5,0.5-0.9-0.1-1.2-0.3
		c-2-1.1-2.8-3.2-3.9-5c-2.4-3.8-5.1-7.3-8-10.7c-2.2-2.6-3.6-5.5-4.5-8.9c5.6,2.8,9.6,7.7,15.1,10.7c-1.9-6.6-6-12.4-7.5-19.9
		c4,3.4,7.9,6,10.7,9.8c-2.4-5.2-4.5-10.5-8.6-14.8c-0.9-0.9-1.4-1.2-2.4-0.1c-9.7,11.3-21.9,18.2-36.3,22.2
		c-12.3,3.4-24.7,5.9-37.3,7.4c-16.5,2-33.1,2.7-49.7-0.1c-14.5-2.5-28.5-6.8-42.3-11.9c-8.8-3.2-17.4-6.7-25.2-12.1
		c-3-2-5.7-4.4-8.2-7c-1.3-1.3-2.1-1.4-3.2,0.1c-1.5,2.2-3.4,4-4.7,6.3c-4.6,7.9-11.7,9.4-19.6,6.5c-2.5-0.9-4.9-1.4-7.3,0.4
		c-0.8,0.6-1.3,1.2-1.4,2.4c-0.1,0.9-1.2,2-1,3.3c-1.7-3.1-0.2-5.8,1.3-8.3c3-5.1,6.3-10,9.5-14.9c0.9-1.4,1-2.2-0.6-3.2
		c-9.8-6.3-18.4-14.3-27.7-21.3c-7.1-5.3-13.5-11.2-18.9-18.3c-4.3-5.7-8.1-11.7-11.2-18.1C104.6,558,99,548.7,94.4,539
		c-2.5-5.4-4.9-10.8-6.3-16.5c-2.2-9.1-5.1-18-6.7-27.2c-1-5.9-1.5-11.9-1.1-17.9c0.1-2,0.8-3.7,1.4-5.5c0.3-0.7,0.7-1.3,1.6-1.3
		c0.9,0,0.9,0.7,1.1,1.4c2.3,7.6,5.7,14.7,9.8,21.5l0-0.1c-1,0.2-1.2-0.7-1.5-1.3c-3.7-6.3-7.1-12.7-8.9-19.8
		c-0.1-0.3-0.3-0.5-0.6-1.1c-1.6,1.5-2.1,3.3-2.2,5.2c-0.7,9.1,0.4,18,2.8,26.8c2.2,8,4,16.1,6.6,24c2.7,8.1,6.7,15.5,10.4,23.1
		c3.2,6.5,7,12.7,10.2,19.2c5.7,11.5,13.5,21.6,23.4,29.8c6.9,5.7,14,11.1,21,16.7c7.7,6.1,16.3,11.2,23.3,18.3
		c1.9,1.9,3.6,4,5.1,6.9c4.9-8.8,12.6-14.3,19.6-20.5c-2.1,3.2-5.1,5.4-8,7.8c-2.6,2.1-2.6,2.1-0.2,4.4c7.7,7.4,17.1,12,26.8,16
		c5.7,2.4,11.7,4.2,17.6,6.2c12.8,4.3,25.9,7.1,39.4,8.6c13.6,1.5,27.1,0.7,40.4-0.9c12.8-1.6,25.7-3.7,38.1-7.8
		c8.2-2.7,16.5-5.1,23.2-10.9c3.9-3.3,8.1-6.2,11.2-10.4c0.9-1.2,0.8-1.8-0.4-2.7c-2.4-1.7-4.7-3.6-7-5.4c-2.2-1.7-2.3-3.5-1.4-5.8
		c2.4-5.8,6.7-10,11.1-14.2c3.4-3.2,7.7-5.2,11-8.4c14.7-14.2,28.1-29.4,40.1-46c6.5-9,12.5-18.4,18.4-27.8c6.5-10.3,14-20,19-31.3
		c2.5-5.7,4.1-11.6,5.4-17.6c0.2-0.8,0.6-2.3-1.1-1.7c-2.2,0.7-4.4,1.7-5.6,3.8c-2.6,4.3-4.8,8.8-6.3,13.6
		c-2.4,7.3-5.2,14.4-10.8,20.1c-4.9,5-10.4,7.1-17.3,5c-2.6-0.8-4.9-2.3-7.5-3.1c-0.5-0.2-1-0.7-1.4,0.1c-1.1,2.2-2.9,3.8-4.3,5.7
		c-4.7,6.4-10.1,12.1-15.9,17.5c-5.6,5.1-12.2,9-18,13.9c-3.4,2.9-3.5,2.7-7.1,0.2c-0.9-0.6-1.9-1.2-2.8-1.9
		c-1.8-1.4-3.7-1.5-5.8-0.8c-4,1.2-6.4,4.4-9.2,7c-4,3.6-7.7,7.7-12.2,10.8c-9.6,6.4-20.5,9.3-31.5,12.2c-1,0.3-2.1,0.9-3.4,0.1
		c7.2-2,14.2-3.8,21-6.3c6.2-2.3,12.3-4.9,17.2-9.7c4.3-4.3,8.7-8.4,13.3-12.4c2.9-2.5,6.4-4.6,10.2-2.5c1.7,0.9,3.3,2.4,4.9,3.7
		c1.5,1.2,2.4,0.9,3.7-0.2c2.9-2.5,5.8-5,9-7.1c6.5-4.3,12.5-9.1,17.6-15.1c4.7-5.4,9.8-10.5,13.3-16.8c0.7-1.2,0.7-2.1,0.1-3.3
		c-2.4-4.5-4.7-9.1-7-13.6c-0.6-1.1-0.9-2.2-2.8-1.8c-1.4,0.2-2.9-0.7-3.7-2.2c1.5,0.1,2.9,2.7,4.1,1.2c1-1.3-0.6-3.2-1.7-4.3
		c-5.4-5.1-8.9-11.4-12.2-17.9c-0.4-0.8-0.6-1.2-1.6-0.7c-2.9,1.5-6.2,1.3-9.3,1.4c-2.7,0.1-4.6,0.9-6.4,2.5c0,0.6,0.5,0.8,0.8,1.1
		c3.5,3.1,6.9,6.1,10,9.6c2.6,3.1,5.7,5.8,9.4,7.7c1.3,0.7,3,1,3.7-0.3c0.7-1.1-0.9-2-1.8-2.7c-4.3-3.2-7.4-7.7-11.3-11.4
		c-1.4-1.3-2.5-3.1-2.3-6c3.9,4.7,7.3,8.9,11.4,12.5c-0.8-0.4-1.7-0.9-2.5-1.3c1.7,2.1,2.9,4.5,5.6,5.2c0.7,0.7,1.3,1.4,2,2.2
		c1.1,1.7,0.2,2.5-1.4,2.9c-1.4,0.4-2.6,0-3.9-0.6c-2.5-1.1-4.2-3.3-6.8-4.6c0.8,2.7,2.7,4,4.6,5.5c1.2,0.9,3.5,1.2,3.2,3.1
		c-0.3,1.8-2.6,1.3-4.2,1.8c0.2,0.9,0.2,2,0.6,2.3c2.2,1.6,1,3.3,0.1,4.7c-2.3,3.4-4.8,6.8-7.6,9.9c-4.5,5-9.1,9.8-13.3,15
		c-1.9,2.4-4.4,2.4-6.7,0c0.1,2.8-2.2,4.6-2,7.7c-1.9-2-3.7-3.4-2.9-6.2c-2.1,3.4-3.8,6.8-3.9,11c-0.3-2.9-4-3.5-3.8-6.7
		c-2,1.7-1.7,3.9-1.7,6c-2.5-0.3-2.3-2.5-3-4c-1,0.3-1.6,0.9-2.1,1.6c0,1,1.8,1.2,1.1,2.1c-0.7,0.9-1.7-0.2-2.5-0.4
		c-0.4-0.1-0.7-0.3-1.1-0.4c-0.6-0.1-1.4-0.2-1.7,0.5c-0.6,1.6-1.4,3.1-0.9,4.9c0.2,0.9,0.9,1.8-0.4,2.1c-1.1,0.3-2.2,0.1-2.8-1.2
		c-0.7-1.3-0.1-2.7-0.3-4.2c-1.1,0.8-2.1,1.4-2.5,2.7c-0.8,2.4-0.1,4.5,1.4,6.6c-3.2,0.4-3.7-1.8-4.1-3.6c-0.5-2.1-1.2-1.6-2.3-0.7
		c-1.6,1.4-1.1,2.9-0.1,4.5c0.4,0.7,1.5,0.7,1.5,1.7c-1.6,0.4-2.5-0.5-3.5-1.5c-1-1-1.6-2.3-2.2-3.6c-1.6,0.9-3,1.8-4.5,2.5
		c-4.7,2.1-9.7,3.5-14.6,5.4c-8,3.2-15.9,6.4-23,11.3c-1.1,0.8-1.8,0.6-1.9-0.8c-0.1-2.2-0.3-4.3-0.3-6.5c-0.3-14.9,0-29.9,0.5-44.8
		c0.5-16.2,1.7-32.4,1.8-48.6c0-6.8,0.9-13.6-0.4-20.3c-0.2-1.2-0.4-1.9-1.8-1.9c-3.5,0.1-7,0.1-10.5,0.1c-1.7,0-2.4,0.5-2.3,2.4
		c0.4,6.1,1,12.3,0.8,18.4c-0.2,9.7,0.3,19.3,0.6,29c0.4,12.5,0.3,24.9,0.5,37.4c0.1,11.5-1.2,23-1,34.5c0.1,5,0,5-4.7,2.6
		c-4.9-2.5-9.9-4.7-15.1-6.4c-1.2-0.4-2.6-1-3.7-0.1c-1.8,1.6-3.2,0.4-4.8-0.4c2.6,1.5,4.3-0.9,5.9-1.8c2.4-1.3,4.6-3.1,6.9-4.8
		c1.7-1.2,2.7-2.6,1.7-4.9c-0.8-1.9-1.4-3.8-2.1-5.8c-1.5,0.7-2.9,1.5-3.8,2.7c-1.6,2.1-3.5,3.5-6.3,3.3c-0.4,0-1.2-0.1-1.1,0.6
		c0.1,1.6-1,1-1.7,1.2c-4.5,1.1-9.2,1.8-13,4.7c1.9,3.2,4.5,4.3,8,3.6c1.5-0.3,3-0.6,4.6,1.1c-1.8-0.7-3.4-0.9-4.8-0.5
		c-3.1,1-5.4-0.3-7.4-2.5c-0.5-0.5-0.9-1.4-1.7-0.9c-2.2,1.3-4.2,0.3-5.7-1.1c-3.9-3.4-9.5-4.7-12.5-9.4c-0.2-0.4-0.8-0.5-1.2-0.8
		c-3.5-2.6-7.3-4.5-10.7-7.2c-4.2-3.4-8.1-6.9-11.7-10.9c-0.8-0.9-1.3-1.1-2.4-0.3c-2.8,2-5.7,3.8-8.6,5.7c-1.8,1.2-3.4,1.1-5-0.5
		c-0.7-0.7-1.5-1.5-2.1-2.3c-2.8-3.9-5.5-7.8-8.3-11.7c-4.5-6.4-8-13.2-9.9-20.8c-0.5-2.1-0.2-3.7,1.8-4.8c1-0.5,1.9-1.2,2.5-2.2
		c2.6-4.8,5.5-9.3,8-14.1c2.4-4.5,3.9-9.6,5.9-14.4c2.1-5.2,4-10.4,6.6-15.4c2.4-4.5,4.5-9.1,6.5-13.9c2.8-6.7,4.4-13.8,7.5-20.4
		c0.7-1.5,1.4-2.4,3.3-2.3c3.7,0.2,7.3,0,11,0.6c3.9,0.6,7.9,0.9,11.9,1c6,0.2,12.1,0.7,18.1,1.7c3,0.5,6,1,9,1.1
		c1.2,0,1.6-0.4,1.4-1.5c-0.2-2.3-0.3-4.6-0.1-6.9c0.1-1,0.4-2.5-1.2-2.2c-1.5,0.2-3.9-1.4-4.5,1.4c-0.7,3.5-2.6,4.3-6.4,2.6
		c-2.3-1-4.5-2.8-7.1-2.6c-4.6,0.4-8.9-0.5-13-2.2c-2.2-0.9-4.3,0.3-6.2,0c-4-0.7-8-2.1-11.9-3.3c-0.7-0.2-0.9-0.8-1.2-1.4
		c-0.5-1.5-0.5-3-0.3-4.5c0.3-2.5,0.7-5.1,0.6-7.6c-0.2-7.1-0.4-14.2-0.8-21.3c-0.4-7.6-1.2-15.1-3.5-22.4
		c-4.5-13.8-11.4-26.5-17.6-39.6c-4.7-9.8-10.9-18.4-18.6-25.9c-4.1-4-6.4-3.9-10,0.6c-0.7,0.9-1.4,1.9-1.9,3
		c-3.5,6.8-4,14-2.6,21.3c2.1,10.7,5.8,20.8,14.1,28.5c2.7,2.5,5.2,5.1,7.5,8.1c1.4,1.8,1.9,3.4,0.5,5.4c-0.7,1-1.2,2.1-1.7,3.1
		c-0.8,1.6-0.4,2.9,0.8,4.1c1.2,1.1,2.4,1.8,4.1,1.1c3.7-1.4,6.6-3.8,8.6-7.2c1.8-3.1,1-6.4-1.8-8.5c-2.2-1.6-4-3.6-5.6-5.8
		c-3.6-5.1-6.2-10.8-9.1-16.3c-3.2-6.1-6.4-12.4-7.9-19.2c-0.4-1.6-0.5-3.3,1.2-4c1.5-0.6,3.4-0.4,4.6,1.1c3.2,3.9,5.8,8.2,8.2,12.6
		c3.9,7.3,6.6,15,9.6,22.7c2.7,7.1,5.9,14,8.4,21.1c2.5,7.1,3.2,14.2,2.2,21.7c-0.7,5-1.9,9.8-2.7,14.7c-1.3,7.8-2.4,15.6-4.8,23.1
		c-3.8,11.7-6.8,23.6-10.6,35.3c-3.2,9.8-6.9,19.4-10.3,29.1c-3.1,8.7-8.3,15.1-17.5,17.9c-4,1.2-5.6,8-2.8,11
		c4.3,4.6,7.7,9.9,10.6,15.3c5.6,10.6,12,20.5,19.6,29.7c2.5,3.1,3.4,3.4,7.2,1.9c2.8-1.1,5.3-3,8.3-3.7c1.7-0.4,3.3-0.2,4.8,0.7
		c7,3.9,12.6,9.7,18.9,14.6c-2.3-1.3-4.8-2.4-6.6-4.2c-3.7-3.5-8-6.1-12.1-8.9c-2.6-1.8-5.2-1.2-7.5,0c-2.6,1.4-5.4,2.3-8.2,3.2
		c-1.7,0.6-2.9,0.1-3.9-1.2c-4.1-5.1-8.4-10-12-15.5c-3.7-5.6-6.6-11.7-10-17.5c-2.6-4.5-5.1-9.1-8.8-12.8c-2.3-2.3-3.4-4.7-2.2-7.8
		c0.8-2.1,1.4-4.7,3.8-5.5c2-0.7,3.9-1.8,5.9-2.5c0.6-0.2,1-0.5,1.3-1.2c2.1-5,2.9-10.2,2.6-15.5c-0.7-10.2-4-19.8-7.9-29.2
		c-2.2-5.2-6.1-9.3-8.6-14.3c-1.1-2.1-2.7-3.6-5-4.5c-4.4-1.7-7.9,0-8.9,4.5c-0.2,0.7-0.4,1.4-0.5,2.1c-0.5,4.2-1.1,8.6,1.5,12.3
		c1.2,1.7,2,3.4,2.7,5.3c0.6,1.7,1.2,3.4,2.1,5c4.1,7,7.3,14.4,6.6,22.8c-0.5,5.1-4.3,7.9-9.3,6.9c-2.4-0.5-4.4-1.8-6.2-3.4
		c-3-2.7-5.3-6-7.2-9.5c-5.3-9.9-10.2-20.1-16.8-29.2c-3-4.2-5.8-8.4-10.1-11.4c-1.1-0.8-1.7-0.9-2.2,0.6c-0.9,2.6-1.4,5.3-1.1,8
		c1,9.8,3.3,19.3,7.6,28.3c1.2,2.4,2.7,4.5,4.9,6.1c0.8,0.6,1.2,1.4,0.8,2.3c-0.4,1-1.2,0.3-1.9,0.2c-1.4-0.1-2.7-0.3-4.1-0.4
		c-1.3,0-2.6,0.1-3.3,1.4c-1.5,2.5-3,5.1-3.4,8.1c-0.5,3.2-0.2,3.6,3,3.9c1.6,0.2,3.2,0.3,4.8,0.4c2.9,0.1,4-0.7,4.8-3.5
		c0.8-2.7,1.9-5.3,3.1-7.8c1.1-2.2,2.1-4.8,4.8-6.2c1.4,6,2.2,11.7,3,17.5c1.8,14.5,7.6,27.6,13.5,40.6c1,2.3,2.4,4.5,3.6,6.8
		c2.7,4.9,5.2,9.9,8.4,14.5c4.7,6.5,9.9,12.8,15.4,18.6c11.3,11.9,22.9,23.2,38,30.2c4.6,2.1,9.4,4,13.9,6.3c4.7,2.4,5,5.7,1.1,9.1
		c0.5-1,1.1-2,1.4-3c0.7-1.8,0.4-3.1-1.6-4.2c-9.1-5.3-19.3-8.6-28-14.6c-5.2-3.5-9.7-7.8-14.3-12c-10.2-9.3-19.5-19.4-27.2-30.8
		c-3.6-5.4-6.6-11.1-9.6-16.9c-5.6-10.7-10.6-21.7-13.3-33.5c-1.7-7.6-2.7-15.4-4.1-23c-0.2-1.2-0.6-2.4-1-4.1
		c-2.8,3.2-4.1,6.6-5.5,9.9c-2.6,6.4-2.5,13.2-1.9,19.9c0.1,1.1,1.8,2.4-0.7,3.6c-0.3-5.9-0.6-11.5-0.1-17.4
		c-3.8,1.1-7.4,0.9-11-0.1c-1.2-0.3-1.6-0.9-1.5-1.9c0.1-5.3,2.2-9.9,5.7-13.8c1-1.1,2.4-1.4,4.2-1.8c-2.7-3.6-4.3-7.6-5.7-11.6
		c-2.2-6.5-3.8-13.2-4.6-20c-0.5-4.3,0.4-8.4,2.1-12.4c0.6-1.4,1.3-1.7,2.5-0.9c2.9,1.9,5.8,3.7,8.3,6.1c2.4,2.3,4.9,4.7,7.8,6.3
		c3.3,1.8,5.1,4.9,7.2,8c1.3-1.2,2.5-2.3,3.7-3.4c0.4-0.3,0.7-0.7,0.6-1.2c-0.3-5.2-0.1-10.6-2.7-15.4c-1.4-2.5-3.1-4.8-5.2-6.9
		c-7.3-7.3-12.2-16.1-16.1-25.5c-3.1-7.4-2.9-15.1-2-22.9c0.5-4,1-7.9,2.5-11.7c0.3-0.7,0.4-1.6,0.9-1.9c2.2-1.3,1.6-3,1.3-4.9
		c-1.2-8-0.6-15.8,2.7-23.2c1.1-2.5,1.4-4.8-0.1-7.3c-1.2-1.9-1.5-3.6,1.2-5.1c2.7-1.5,4.4-4.1,5.2-7.2c1.1-4.8,3.2-9.4,5.2-13.9
		c2.4-5.5,7-8.6,12-11.2c2.1-1.1,2.8-1.6,1.2-4.3c-2.7-4.7-2.6-10-0.4-15c1.4-3.2,3.4-6,5.7-8.8c5.1-5.9,18.7-3.7,22.1,3.7
		c1.7,3.6,0.4,9.3-2.7,11.8c-1.1,0.9-2.2,0.8-3.4,0.6c-2.2-0.3-3.1,0.6-2.7,2.7c0.7,3.7,1.9,7.1,5.9,8.5c1.5,0.5,2.7,0.7,3.5-1.2
		c1.4-3.1,3.4-5.7,6.5-7.5c1.4-0.8,2.6-0.9,4.1-0.1c1.6,0.8,1.8-1,3-1.7c-4.3-2.4-9.6-4-7.3-10.6c-0.1,0.5-0.1,1-0.2,1.4
		c-0.4,2.2,0.3,3.9,2.1,5.2c3.7,2.6,7.3,4.2,11.2,0.3c1.2-1.2,2.8-1.9,4.2-2.8c1.1-0.7,1.3-1.7,0.8-2.9c-0.7-1.5-1.5-2.9-3.2-3.3
		c-0.5-0.1-0.6,0.4-0.9,0.6c-3.3,3.2-5.8,3.2-8.8-0.3c-1.3-1.5-1.3-1.5-3.1-0.5c1.4-2.2,1.6-2.2,3.6,0.2c2.9,3.3,6.8,2.7,8.2-1.3
		c0.7-2,0-3.8-1.5-4.9c-3.6-2.9-7.6-4.6-12.4-3.2c-5.5,1.6-9.2-1.5-8.3-6.8c0.2-1.2,0.6-1.9,2-1.9c2.4,0,3.5-1.5,4.1-3.7
		c0.8-3.4,1.7-6.8,2.6-10.2c1.1-3.9,3.4-6.4,7.2-7.6c0.4-0.1,0.7-0.3,1.1-0.5c0.1,0,0.1-0.1,0.2-0.4c-0.9-0.6-2-0.4-2.9-0.4
		c-7.2,0.1-13-2.8-17.9-7.9c-2.1-2.2-2.5-5.3-2.7-8.3c-0.5-8,1.4-15.7,3-23.4c0.9-4.6,2.5-8.9,5-12.8c3.5-5.4,8.3-9.2,13.7-12.4
		C172.4,153.6,173.2,153,174,152.5L174,152.5z M380.6,530.5c1.2-1.8,1.9-4.2,5.1-4.7c-1.3,2.2-3,3.9-2.1,6.4
		c4.2-1.6,1.4-6.1,3.9-8.4c-2.7,0.7-2.7-0.5-2-2.1c1.1-2.5,1-5.1,0.8-7.8c0-0.9-0.2-1.8-1.8-1.6c1,4.1-0.8,7.8-2.1,11.5
		c-0.6,1.6-0.8,3-3.1,3.3c-3.7,0.6-5.4,4.1-7.8,6.6c-1,1-0.7,2.6,0.1,4.1c1.6-3.6,2.9-7.2,7-8.4
		C379.9,529.1,380.7,529.1,380.6,530.5c-2.5,1-5.1,1.8-4.7,5.4C378.9,535.2,379.7,534.3,380.6,530.5z M267.9,244.5
		c-0.9-0.1-1.7,0-2.3,0.9c-2,2.9-4,13.2-1.6,16.5c0.6-0.8,0.7-1.8,1.5-2.6c3.7-3.9,8.2-4.6,13.2-3.9c6,0.9,11.2,3.7,15.6,7.8
		c5.2,4.8,8.1,10.5,7.8,17.7c0,0.9-0.5,2,0.7,2.9c0.7-0.8,1.3-1.5,1.9-2.2c6.1-7.1,13.1-13.4,21-18.5c5.4-3.5,11-6.9,16.2-10.7
		c1.5-1.1,2.7-2.5,3.9-3.8c1.4-1.5,0.2-4.6-2.5-6.2c-6.4-3.8-13-5.2-20.1-1.2c-4.5,2.5-8.7,5.5-13.2,8.2c-0.1-0.7,0.5-0.9,0.9-1.3
		c4.2-3.4,8.9-5.8,13.6-8.4c1.1-0.6,2.3-1,3.1-2.3c-2.6-0.4-5-0.5-7,0.5c-8.6,4.1-16.5,9-20.8,18.3c-1.1-0.8-1.1-2.2-2.2-2.4
		c-2.3-0.4-3.9-2-5.8-3c-3-1.7-5.7-3.8-8.7-5.4c-4.2-2.2-8.8-2.7-13.3-3.5c-2-0.4-3.8-0.1-5.6,0.6
		C265.1,243.9,266.8,243.7,267.9,244.5z M434.5,367.7c-2.2,2.6-3.1,5.9-4.9,8.7c-0.6,0.9-0.9,2.4-2.3,1.9c-1.3-0.4-2.6-1.1-2.7-2.7
		c-0.2-3.2-2.8-4.3-6-3.9c-5,0.6-9.3,2.7-12.6,6.6c-2.3,2.8-1.7,5.6,1.6,7.2c1.5,0.7,3.1,1.2,4.7,1.8c3.3,1.2,4.9,3.7,5.1,7.1
		c0.2,3.4,2.2,5.6,5.5,6.1c1.7,0.3,3.3-0.1,4.3-1.6c1-1.4,2.2-2.7,1-5c-0.8-1.6-1.4-3.7-0.7-5.6c2.4-6.5,3.9-13.4,9.2-18.4
		c0.9-0.8,0.9-1.5-0.4-1.8C435.7,368.1,435.1,367.9,434.5,367.7c-0.7-0.7-1.6-1.1-2.4-1.5c-1.2-0.7-2.2-1.4-2.9-2.7
		c-2.1-3.9-1-9.3,2.7-13.4c2.1-2.4,4.3-4.7,6.2-7.2c2.3-3.1,4.2-6.5,5.2-10.8c-2.5,1.8-4.7,1.9-7,1.2c-2.7-0.9-2.9-3.6-4-5.8
		c-0.8,0.7-1.4,1.2-2,1.9c-3.9,4.3-7.6,8.8-11.6,13.1c-5,5.4-8.5,11.4-7.9,19c0.1,1.3-0.6,1.5-1.7,1.6c-3.5,0.4-5.5-1.6-7.3-4.1
		c-0.7-1.1-1.5-1.8-2.9-2.4c-0.1,0.7-0.1,1.1-0.1,1.6c0.1,5.8,0.3,11.7,0.3,17.5c0,9.3,0.3,18.6,2,27.7c2.3,11.6,4.5,23.3,8.1,34.6
		c3.2,9.8,5.2,19.9,9.5,29.3c0.6,1.2,0.6,2.7,1.8,4.2c0-0.8,0-1.1,0-1.4c-0.5-11.2,0.1-22.3,2.7-33.3c1.5-6.3,2.6-12.7,4-19
		c0.4-1.6-0.1-2-1.4-2.3c-3-0.7-5.5-2.4-7.9-4.3c-2.1-1.7-3.1-4-3.2-6.7c-0.1-2.4,0.5-4.6,1.1-6.8c1.4-4.9-0.5-8.3-5.3-9.9
		c-1.1-0.4-2.3-0.8-3.4-1.3c-4-1.7-4.7-5.2-2.1-8.7c2.4-3.2,5.8-4.6,9.3-6c5.1-2.1,8.6-0.8,10.8,4.1c0.4,0.9,1,1.5,1.9,1.6
		c0.9,0.1,1.2-0.8,1.5-1.4c1-1.8,1.8-3.8,2.8-5.6C432.3,369.4,432.7,367.8,434.5,367.7z M517,459c-4.4,12.2-9.9,23.3-16.5,34
		c-1.9-9.6-4.1-18.9-10.3-26.7c-0.5,2-0.4,4-0.7,5.9c-1.7,9.7-4.6,18.9-9.5,27.5c-4.5,7.8-9.8,15.2-14.6,22.8
		c-6.1,9.7-12,19.4-18.8,28.6c-8.4,11.3-16.8,22.5-26.7,32.6c-5.3,5.3-10,11.2-15.9,15.9c-3,2.4-6.4,4.2-9.2,6.9
		c-4.5,4.2-8.9,8.5-11,14.6c-0.5,1.5-0.3,2.6,0.9,3.6c1.9,1.5,3.7,3.3,5.8,4.6c4.9,3.1,8.4,7.5,11.2,12.5c2.1,3.7,3.5,7.9,6.4,11.6
		c2-8.2,7.6-13.5,13.2-18.9c2.1-2,4.6-3.4,6.8-5.3c9.8-8.6,19.6-17.2,29.4-25.8c12.5-11,23.2-23.5,32.6-37.2
		c6.5-9.6,11.8-19.9,15.9-30.8c2-5.2,4.4-10.3,6-15.6c2.6-8.2,4.4-16.6,6.1-25.1C520.6,482.9,521.2,471.2,517,459z M208.2,450.5
		c-0.2,1.9-1.2,3.5-2.3,4.9c-1.7,2.3-2.8,4.8-3.2,7.6c-0.6,4-1.2,7.9-0.3,11.9c0.1,0.6,0.4,1.8-0.8,1.4c-1.5-0.5-3.3,0.1-4.6-1.4
		c-1.1-1.2-2.6-2.1-3.9-3.1c-3.1-2.2-6.9-1.3-8.6,2c-1.1,2.1-2,4.4-3,6.5c-1.5,3-1.1,3.7,2.3,4.1c0.4,0,0.8,0,1.2,0
		c0.2,0,0.4,0.1,0.6,0.2c0.3,0.9-1.2,0.7-0.8,1.7c2.3,0.7,4.5-0.9,6.8-0.8c0.1,1.4-1.5,1.7-1.3,3.1c1.4,0.1,2.8-1.5,3.8-0.6
		c2.4,2.1,5.3,2.5,8,3.5c1,0.4,0.9,1,0.6,1.7c-1.5,2.8-2.9,5.7-5,8.1c-2.9,3.3-6.2,5.4-10.8,4.7c-3.2-0.5-5.7,1.2-8,3.2
		c-1.4,1.2-0.7,2.7-0.4,4c0.3,1.3,1.6,1.1,2.6,1c1.1-0.1,2.2-0.3,3.5,0.4c-1.2,1-2.6,0-3.6,0.9c1.1,2.1,2.6,4,3.9,6
		c0.9,1.4,1.8,1.7,3.2,1.1c4.4-1.9,9.4-2.8,12.5-7c0.3-0.5,0.6-1.4,1.6-0.4c1.9,1.8,2,1.7,2.7-0.9c0.2-0.6-0.1-1.3,0.6-1.7
		c0.9-0.1,0.9,1.1,1.7,1.1c1.6-1.3,1.8-3.8,3.8-5.1c0.7,1.1,1.4,2.2,2.2,3.1c2.1,2.6,3.7,5.7,6.8,7.3c5.4,2.7,11.2,4.8,17.2,5.8
		c1.9,0.3,4.1-0.2,5-2.3c0.6-1.5,1.1-3.3,1-4.9c-0.2-8,2.7-8.9,8.9-11.8c0.6-0.3,1.3-0.1,1.7,0.4c0.5,0.6,0,1-0.5,1.4
		c-2.8,1.7-3.9,4.7-5.8,7.2c-1.9,2.5-3,5.5-4.1,8.4c-0.9,2.3-1,4.8,0.3,6.9c1.5,2.5,3.2,4.9,5.2,7.2c2.7,3.1,6.5,4.2,10.7,6
		c-3.9,0.1-7,0.3-10.2,0.7c-4.4,0.4-8.8,1.2-13.1-0.5c-1.6-0.6-3.2-0.2-4.6,0.7c-1.2,0.8-1.8,1.7,0,2.6c0.9,0.5,1.6,1.1,2.3,1.6
		c-0.2,0.9-1,0.1-1.1,0.8c2.5,1.2,5-0.3,7.9-0.4c-1.2,1.7-3,1.1-4.1,2.1c1.4,1.1,2.7,2.4,4.2,3.3c2.8,1.8,5.5,3.5,9,0.7
		c3.3-2.7,7.9-2.7,11.8-4.2c-0.5-0.9-1.9,0.1-2.2-1c0.1-0.5,0.4-0.7,0.9-0.6c2.2,0.4,4.3-0.1,6.4-0.9c4.9-1.7,10-7.9,10.9-13.1
		c0.4-2.4,1.7-4.6,2.7-6.9c0.7,1.6-0.3,2.8-0.6,4c-0.4,1.4-0.6,2.5,0,4.2c1.2,3.1,3.9,5,5,8c0.5,1.3,1.7,2.4,2.5,3.6
		c0.1-2.7-1.1-5-1.8-7.4c-1.9-6.2-3.2-12.5-4.3-18.9c-1.7-9.6-5.3-18.2-12.3-25.1c-2.4-2.3-4.8-4.9-7.6-6.5
		c-2.4-1.4-4.8-2.9-7.2-4.5c-3.1-2.1-5.6-4.9-8.7-7.1c-4.8-3.4-9.9-7.1-12.8-12.7c-0.9-1.7-1.8-3.5-2.7-5.2c-0.9,0.2-1.2,1-1.7,1.5
		c-0.5,0.5-0.8,1.2-1.8,0.9c0.3-1.5,1.8-2.4,2.4-4.1c-1.9,1-3.4,1.8-5,2.6c2.5-3.6,7.2-5.4,11.3-4.9c5.2,0.6,9.2-1.7,12.8-5.2
		c0.6-0.6,1.3-1.3,0.8-2.3c-0.5-0.9-1.4-0.4-2.1-0.3c-0.4,0-0.8-0.1-1.1-0.2c-2.3-1.1-4.6-2.1-6.8-3.4c-3.1-1.9-6.6-2.2-10-0.5
		c-1.7,0.8-3,0.4-4.3-1c1.1-0.8,2-1.7,3.3-1.4c5,1,10.4,0.8,14.7,4.3c0.4,0.3,0.9,0.3,1.3,0.6c2.2,1.5,3.7,0.7,5-1.4
		c-5.1-3.1-9.4-7.1-13.6-11c-1.9-1.7-3.7-2.8-6.5-2.8c-1.8,0-3.9-0.2-5.7,0c-1.9,0.2-4.6-0.1-5.7,2.6c-1.2-1.5-2.6-1.3-4.1-0.5
		c-1.1,0.6-2.4,0.8-3.7,1c-2.4,0.5-2.5,0.7-0.9,2.6c2.4,2.8,2.2,4.3-0.5,6.9c-0.4,0.4-0.8,0.8-1.1,1.2c-0.2,0.2-0.5,0.7-0.1,0.8
		c2.2,0.8,0.3,1.6,0,2.4c-0.4,1.1-1.4,1.9-1.5,3.2C206.3,451.8,206.8,450.4,208.2,450.5z M322.5,495.9c1.3,1.7,1.2,3.4,0.9,5
		c-0.8,4.5-2,8.8-4,12.9c-1.3,2.8-2.4,5.7-3.5,8.6c-0.4,1.1-0.4,2.4,0.7,3.1c1,0.6,1.7-0.3,2.5-0.9c1.8-1.5,2.8-3.7,3.9-5.7
		c3.1-5.7,4.1-12.1,5.9-18.2c0.8-2.7,1-5.5,2.6-7.9c1.5,10.9-4.2,20.2-6.7,30.3c1.5,0.3,2.4-0.4,3.1-1.3c1.2-1.6,2.4-3.2,3.4-4.9
		c3-5.1,3.9-10.9,5.3-16.6c0.6-2.3,0.6-4.8,1.9-7c0.4,7.8-2.2,15-5.2,22.5c1.8-1.1,3.1-2.4,3.9-3.9c4.2-8.8,6.6-17.9,5.7-27.8
		c-0.2-2.3-0.7-4.8,1-6.9c0.1,2.9-0.8,6,0.8,8.4c2.3,3.5,1.9,7.6,3.5,11.2c0.8,1.9,1.7,3.9,3.5,5c3.2,2,5.8,4.8,8.9,6.9
		c0.3,0.2,0.7,0.5,0.8,0.8c1.1,2.6,2.4,3.5,4.8,3.1c5.5-0.9,11-1.8,16.6-1.9c2.2,0,2.9-0.8,2.8-3c-0.1-5.1-1.3-10.1-1.9-15.2
		c-0.2-1.2-0.9-3.2,0.1-3.5c1.4-0.5,2.5,1.1,3.4,2.4c2.3,3.4,4.9,6.5,7.8,9.4c1.6,1.7,3.2,1.6,5.5,0.8c-4-3.2-6.5-7.3-9.8-10.7
		c-5.1-5.3-7.3-9.2-7.2-11.9c1.7,1.6,3,3.4,4.4,5c4.9,5.5,11.1,9.3,17.3,13.2c1.1,0.7,2.4,0.8,3.7,0.7c0.7-0.1,1.5-0.2,1.8-1
		c0.4-0.9-0.4-1.3-0.9-1.8c-3-2.7-6.3-5.1-9.6-7.5c-3.2-2.4-6.7-4.4-8.3-8.4c-0.2-0.6-0.9-1.4-0.2-2c0.7-0.6,1.3,0.3,1.8,0.7
		c2.9,2.4,5.6,5,8.1,7.8c2.8,3.2,5.7,6.4,9.6,8.5c1.9,1.1,4,1.9,6.4,0.1c-1.8-1.4-3.4-2.7-5.1-3.8c-6.8-4.4-13-9.3-15.6-17.5
		c-0.2-0.8-0.6-1.3-1.6-0.9c-2.3,0.9-4.4,0.1-6.4-0.7c-5.4-2.3-10.3-5.6-14.7-9.6c3.3,5.2,6.4,10.6,12.7,13c0.8,0.3,2.6,0.5,2.3,1.6
		c-0.4,1.3-2.1,0.9-3.4,0.9c-0.4,0-0.9-0.3-1.3-0.5c-2.4-1.2-4.9-2.3-7.3-3.5c-1.5-0.8-2.8-2.1-3.3-3.9c3.5,4,8.3,5.6,13.2,7
		c-3.5-2.2-7-4.3-9.4-7.8c-2.3-3.3-5.2-6.3-6-10.5c0.4,0,0.5-0.1,0.6,0c0.2,0.2,0.5,0.4,0.7,0.7c4.9,5.9,11,10.1,18.2,12.7
		c2.7,1,6.1-0.1,8-2.4c-0.8-0.5-1.7-1-2.5-1.4c-4.9-2.7-10.1-4.7-14.4-8.4c-1.9-1.6-3.5-3.2-4.7-6c0.8,0.4,1.1,0.5,1.3,0.7
		c5.7,5.4,12.4,9.5,19.2,13.3c2.4,1.3,5,2.4,7.9,0.9c-9-6.8-20.2-15.8-20.5-19.5c0.3,0.2,0.6,0.3,0.8,0.5
		c5.3,5.1,10.5,10.2,15.8,15.3c3.1,3,8.3,4,10.9,2.2c-2.9-1.6-5.7-3.3-7.9-5.9c-5-5.8-9.5-12-15.1-17.2c-0.5-0.4-0.8-0.8-0.2-1.6
		c4.3,3.1,8.7,6,12.6,9.6c3.9,3.6,6.4,8.6,10.7,11.9c-2.5-6.3-4.3-12.9-8.8-18.1c-2.8-3.2-5-7.2-8.9-9.2c-4.5-2.3-7-1.6-9.1,2.1
		c-2.5,4.3-6.1,7.5-10,10.5c-1.2,0.9-2.4,1.7-3.8,1.9c-1.8,0.3-3.1,0.1-4-1.9c-0.9-1.9-1.1-3.8-0.9-5.8c0.2-2.1,0.9-4.2,0.2-6.2
		c-2.2-5.9-6-10.4-11.6-13.5c-1-0.5-1.9-0.5-2.9,0.1c-2.9,1.8-5.5,3.8-6.9,7.1c0.3,0.6,1.2,0.7,1.4,1.6c1.9,6.1,2.7,12.3,2.2,18.7
		c-0.1,1.7,0.3,3.5,0.4,5.2c0,0.6,0.8,1.5-0.3,1.8c-0.8,0.2-1.5,1-2.7,0.2c-1.3-0.9-2.1-2.3-3.5-3c-4.7-2.5-9.3-5.2-13.8-8.1
		c-1.6-1-3.3-1.2-5-0.5c-4.8,2-8.6,5.3-10.1,10.3c-1.8,5.8-2.8,11.8-3.6,17.8c-1,6.8-1.8,13.6-3.6,20.3c-0.4,1.5-0.7,2.9-0.2,4.5
		c1.8-0.5,2-2,2.4-3.4c1.6-5.3,3.3-10.7,4.8-16.1c1.7-6,3.9-11.8,4.6-18.1c0.2-1.9,0.6-3.8,1.9-5.4c3.5-4.3,9.8-5.2,14.9-1.7
		c-1.8-0.1-3.6-0.4-5.3-0.9c-6-1.7-9.7,2.6-10.3,7c-0.2,1.7-0.5,3.3-0.9,4.9c-1.5,7-4.1,13.6-5.9,20.4c-0.9,3.3-1.6,6.5-2.5,9.8
		c0.2,0.1,0.4,0.2,0.6,0.3c2.3-1.4,3.9-3.5,5-6c2.4-6,4.6-12.1,5.9-18.4c0.4-1.8,0.7-3.8,2.1-5.9c0.1,1.8,0,3-0.3,4.2
		c-1.6,6.8-4.3,13.2-6.5,19.8c-0.5,1.4-1.3,3.2-0.2,4c1.1,0.7,2.2-1,3-2c5.4-6.6,8.4-14.2,9.8-22.5c0.2-1.3,0.3-2.5,0.5-3.8
		c0.2-1.2,0.4-2.5,0.5-3.7c0.2,0,0.4,0.1,0.7,0.1c0.4,3.3-0.1,6.6-0.8,9.8c-1.3,6.4-4.4,12-7.4,17.6c-0.7,1.2-1.5,2.4-1.5,3.8
		c1.3,0.5,2.2-0.2,3-0.8c2.4-1.8,4.4-3.8,5.8-6.6c2.4-4.8,3.7-9.8,4.5-15.1c0.4-3,0.8-6,1.2-9c0.2,0,0.4,0.1,0.6,0.1
		c-0.1,5.8,0,11.7-2,17.3c-1.1,3.1-2.5,6-2.9,9.3c-0.1,1.1-0.6,2.5,0.9,3.1c1.5,0.6,2.4-0.6,3.1-1.6c1.9-2.5,3-5.4,3.8-8.4
		c0.3-0.9,0.2-2.1,1.1-2.8c-0.2,1.8-0.6,3.5-1.1,5.1c-1,3-1.9,5.9-4.5,8c-0.9,0.7-1.8,1.1-2.9,0.6c-0.9-0.5-1.3-1.4-1.3-2.4
		c0-1.2,0.2-2.4,0.3-4.3c-0.6,0.9-0.9,1.2-1,1.7c-1.2,2.7-3.6,4.2-5.8,5.9c-1.4,1-3.1,1.7-4.3-0.5c-3.3,2.9-3.5,3-5.4,0
		c-0.9,3.1-4.4,3.9-4.9,7.2c-1,7.5-3,14.9-5,22.2c-0.3,1.1-0.3,2.2-0.5,3.3c-0.1,0.5-0.2,1.2,0.4,1.5c0.7,0.3,1.3-0.2,1.7-0.6
		c0.4-0.4,0.6-0.9,0.8-1.5c3.1-7.1,5.2-14.6,6.8-22.2c0.5-2.1,0.8-4.2,1.2-6.4c0.8,1,0.7,2,0.5,3c-1,6.2-2.3,12.4-4.4,18.4
		c-0.8,2.3-1.8,4.4-2.7,6.6c-0.3,0.8-0.4,1.7,0.3,2.2c0.7,0.4,1.3-0.4,1.7-0.9c1.8-2.1,3.6-4.3,4.6-7c2.4-6.2,4.1-12.6,5.1-19.1
		C321.5,498.6,321.5,497.2,322.5,495.9z M480,345.9c-0.3,0.1-0.4,0.1-0.5,0.2c-7.9,10.4-17.5,18.8-28.7,25.4
		c-0.1,0.1-0.3,0.2-0.4,0.2c-7.1,3.6-13.4,8.3-18.9,14.2c-1.6,1.7-2.6,3.6-2.9,5.9c-0.2,2.1,1.1,3.5,2.5,4.5c1.3,1,2.5-0.3,3.5-1.2
		c1.6-1.5,3.2-2.9,4.5-4.6c2-2.6,4.5-4.7,7.3-6.5c0.6-0.4,1.4-0.9,2-0.4c0.8,0.6,0.4,1.5,0.2,2.2c-0.6,1.6-1.8,2.8-3,4
		c-2.5,2.4-4.9,5-6.9,7.9c-6.3,9.3-10.9,19.3-13,30.6c-2.4,13.1-5.4,26.1-4.4,39.6c0.2,2.6,0.1,5.3,1.4,7.7
		c5.2,9.7,10.3,19.4,15.5,29.2c0.7,1.4,2,3.2,1.7,4.3c-0.7,2.1,0.7,2.2,1.7,2.8c0.9,0.5,1.9,0.8,2.8,1.3c7,3.5,13.3,2.4,18.8-3.1
		c3.6-3.6,6.2-7.9,8.1-12.6c2.6-6.1,4.3-12.5,7.5-18.4c1.3-2.3,2.5-5,5.1-5.8c3.7-1.3,5.9-3.2,5.3-7.4c-0.1-0.5,0.2-1,0.7-1.2
		c0.6-0.3,1,0.2,1.4,0.7c0.9,1.4,1.9,2.8,2.8,4.2c0.4,0.6,0.7,1.4,1.6,1.1c4.4-1.2,7.7,0.6,10.7,3.6c1.4,1.4,2.1,0.7,2.5-1
		c0.8-3.4,0.4-6.8-0.3-10.2c-1.2-5.8-6.8-9-12.5-6.9c-0.4,0.1-0.8,0.2-1.1-0.3c0.6-1.5,1.3-3,1.9-4.6c2-5.9,4.6-11.6,3.9-18.1
		c-0.3-2.8-0.9-5.3-3.7-6.5c-2.9-1.3-5.2,0.1-7.3,2.1c-6.5,6.3-9.7,14.1-10.4,23c-0.1,0.9,0.4,2-0.5,2.9c-6.4-7.4-11.6-9.2-17.2-6
		c-3.3,1.8-5.5,7.3-4.4,11.3c1.4-2.5,3.3-3.6,6.1-3.1c3.2,0.5,6.2,1.4,7.7,4.5c1.7,3.7,2,7.8,2.1,11.9c0.1,5.7-1.8,10.9-4.1,15.9
		c-2.8,6-6.5,11.4-12.9,14.2c-2.6,1.1-6.9,0.9-9.3-1.6c-6.1-6.7-8.5-14.8-9-23.4c-0.6-9.6,2.5-18.4,6.2-27
		c2.7-6.1,5.2-12.2,7.9-18.2c0.4-0.8,0.8-1.9,0.2-2.5c-0.9-0.8-1.7,0.3-2.4,0.8c-4.4,3.1-7.7,7.1-9.4,12.3c-0.9,2.7-2.1,5.4-3.6,7.8
		c-0.3,0.6-0.7,1.1-1.5,0.9c-0.6-0.1-0.8-0.8-0.9-1.3c-0.2-0.9-0.3-1.9-0.3-2.8c0.2-3.9,1.6-7.5,3.4-10.9c4-7.7,8.8-14.8,13.8-21.8
		c11.7-16.1,20.7-33.5,25.9-52.8C478.6,357.5,479.6,351.8,480,345.9z M268.1,409.7c0,4.6,0,10.3,0,16.1c0,2,0.5,3.7,1.9,5.2
		c1.4,1.5,2.5,3.3,3.4,5.2c0.6,1.2,1.2,1.7,2.6,1.9c2.9,0.5,5.7-0.1,8.6,0.2c4,0.4,7.9,0.4,11.9,0.6c7.7,0.3,15.4,0.6,23.2,0.9
		c0.9,0,1.8,0.1,2.5-0.5c1.3-1.3,2.5-2.7,3.9-3.9c1.3-1.1,2.2-2,1.6-4.1c-0.3-1,0.2-2.6,0-3.9c-1.4-8-2.5-16.1-3.1-24.2
		c-0.9-11.4-3.4-22.6-3.8-34c0-0.9-0.4-1.6-1.1-2c-2.2-1.5-3.7-3.5-5.1-5.6c-1.2-1.8-2.7-2.8-4.9-2.9c-5.9-0.3-11.8,0.2-17.6,0.4
		c-3.5,0.1-7,0.6-10.5,0.8c-2.3,0.1-4.2,1-5.7,2.6c-1.7,1.7-3.4,3.3-5.6,4.3c-1.1,0.5-1.8,1.3-2,2.5c-0.2,1.9-0.6,3.8-0.6,5.7
		C267.6,386,268.8,397.3,268.1,409.7z M263.3,367.5c2.4-1.6,4.7-3.3,6.5-5.6c2.4-3.1,5.3-5.1,8.9-6.5c1.8-0.7,4-1.4,4.6-3.5
		c1-3.9,2.8-7.9-0.2-11.9c-1.1-1.4,0-4.1,1.3-3.7c2,0.6,3.3-1.1,3.4-2c0.6-4.2,2.9-8,2.8-12.3c-0.2-5.6-0.3-11.2,0-16.8
		c0.1-1,1-2.4-0.7-2.9c-1.4-0.5-2.4,0.6-3.4,1.4c-1.1,1-0.6,2,0,3c1.9,2.8,2.2,5.6,0.3,8.7c-1.6,2.6-2.3,5.6-2.7,8.6
		c-0.3,1.8-1.1,3.5-2.2,5c-0.8,1.1-1.7,1.1-2.5,0.1c-2.3-3-4.6-6-8.7-6.7c-0.2,0-0.6-0.3-0.5-0.4c0.4-2.2-1.9-2.7-2.6-4.2
		c0.3-0.9,1.5,0,1.8-1c-1.2-1.4-2.3-3.2-4.6-2.3c-1.5,0.6-2-0.2-2.4-1.4c-0.3-0.7-0.5-1.5-0.7-2.1c-0.9-0.2-0.8,1.1-1.8,0.7
		c0.4-3.5-1.9-5.9-3.4-8.6c-1,0.3-0.8,1.8-1.6,1.5c-1.9-0.6-3.3-2-3.5-4.1c-0.2-1.9,0.7-4-1.8-5.3c1.6,0.5,2.6,0.9,3.9-0.5
		c1.3-1.5-0.2-2.1-0.7-3c1.6-0.3,3.3,2.2,4.6-0.4c-2.6-1.2-5.2-2.4-7.9-3.6c0.1,1.7,1.4,2.2,1.5,3.5c-1.4,0-2.6-0.7-3.8-1.2
		c-1.3-0.5-3.6-0.7-3.8,0c-0.8,2.3-2.4,1.3-3.6,1.3c-5.2-0.2-8.7,2.5-12.2,6.3c2.1,0.1,3.9-1.4,5.6,0.5c-3.9,0.4-6.8,4.3-6.9,9
		c1.5-0.7,2.7-2,4.7-1.8c-1.4,2.2-3.6,3.7-4,6.3c-0.3,2.4-1,4.7-1.4,7c-0.4,2.3-2.5,4.2-1.6,7c1.2-1.1,1.5-2.8,3.6-3.3
		c-2.4,4.8-0.6,8.5,1.9,12.1c0.5,0.7,0.7,1.6,1.1,2.4c1.8,3,4,5.6,7.4,7.3c0.3-1.3,0.1-2.4,1-3.4c0.5,2.1,1.5,3.7,3.7,4.3
		c0.5,0.1,0.7,0.7,0.4,1.4c-1,1.8-1.7,3.8-2.7,5.6c-2.3,3.9-5.5,7-8.7,10.2c-1.7,1.7-3.7,3.5-4,5.8c-0.4,2.8-1.1,5.7-1.2,8.5
		c-0.2,4.6,0.7,8.9,4.7,11.6c5.5,3.7,9.1,8.6,10.8,15c0.3,1,0.8,1.7,2,1.8c2.2,0.3,4.1,1.2,6.1,2.1c1.2,0.6,2.4,1.3,3.8,1.3
		c1.9,0.1,2.4-1.1,2.8-2.7c0.3-1.6-0.4-2.1-1.8-2.4c-1.9-0.4-4.2-0.9-4.7-3.2c-1.1-4.7-3.5-8.1-7.8-10.3c-1.2-0.6-1.4-1.6-0.4-2.7
		c1.2-1.3,2.3-2.6,2.6-4.5c0.2-1.4,0.9-1.8,2.3-1.5c3.3,0.6,6.6,0.8,9.4-1.8c2.2-2,3.6-4.4,4.6-7.2c1.2-3.1,2-6.3,2.9-10
		C264.4,364.4,263.2,365.9,263.3,367.5z M192.8,340.4c0.5,6-4.1,10.2-9.4,12.9c-2.3,1.1-4.3,0.7-6-1.2c-1.7-1.9-1.6-3.8-0.5-5.9
		c2.6-5,2.5-5.2-1.3-9.5c-0.5-0.6-1.1-1.1-1.7-1.7c-5.6-5.5-11.2-11-13.7-18.8c-0.4-1.4-1-2.7-1.5-4c-0.4-1.4-1.5-1.6-2.3-0.8
		c-1.5,1.5-3.5,2.5-4.6,4.5c-4.5,7.5-6,15.5-4.2,23.9c2.5,11.7,7.7,22.1,15.7,31c1.5,1.7,3,3.3,4.3,5.1c1.6,2.2,1.4,4-0.5,6
		c-1.3,1.4-2.7,2.4-4.8,2.1c-1.5-0.2-2.9,0.2-3.2,1.8c-0.4,2,0.8,3.6,2.1,4.8c1.3,1.2,2.8,2.6,4.8,1.8c2.1-0.7,4.2-1.6,5.8-3.3
		c3.8-4.3,8.8-4.1,13.7-3.4c3.2,0.5,5.3,4.4,4.4,7.5c-1.5,5.1-3.6,6.4-8.7,5.4c-3-0.6-4.4,0.3-5.1,3.4c-0.4,1.9-0.2,3.8,0.2,5.7
		c0.7,2.9,1.5,5.9,1.2,9c-0.5,6-3.5,10.4-9.1,12.7c-5.3,2.2-10.1,1.2-14.4-2.7c-2.1-1.9-2.4-1.8-4.1,0.6c-1.2,1.7,0.1,2.7,0.8,3.8
		c6.2,9.2,9.6,19.6,12.3,30.2c2,7.9,2.2,15.9-0.5,24.1c3.5-2.2,5-4.1,7-8.9c4.1-9.4,7.1-19.3,10.7-28.9c3.2-8.5,5.3-17.4,7.9-26.1
		c1.9-6.2,3.8-12.4,5.7-18.5c1.7-5.6,1.9-11.5,3.1-17.2c1.4-6.6,3-13.2,2.9-20c0-4.9-0.1-9.8-1.7-14.4
		C196.9,347.7,196.7,343.2,192.8,340.4z M137.7,414.9c0.4-1.9-0.2-3.4-0.3-5c-0.1-0.8,0-1.6,0.6-2c0.8-0.4,1.2,0.5,1.6,1
		c1.9,2.6,3.8,5.1,6.3,7.2c3.7,3,6.7,3.1,10.4,0.1c0.6-0.5,0.5-0.8,0.1-1.4c-1.2-1.6-2.3-3.2-3.6-4.8c-6-7.9-12.1-15.7-15.9-25
		c-0.9-2.1-2.1-2.8-4.3-3c-6.1-0.5-11.1-3.2-14.7-8.4c-0.6-0.9-1-1.8-1-2.9c0-1-0.3-2.4,0.7-2.8c1-0.5,1.8,0.5,2.6,1.2
		c2.4,2.1,4.9,4.1,7.9,5.4c2.6,1.1,3.4,0.6,3.4-2.1c0-0.8-0.1-1.6,0.1-2.4c0.5-2.4,2.1-3,3.9-1.3c0.9,0.8,1.6,1.8,2.3,2.7
		c3.3,4.4,7.3,7.5,12.8,9.1c4.5,1.3,9.1,0.5,13.4,1.8c1.4,0.4,3.5-2.3,3-3.4c-1.3-2.5-2.9-4.6-5.6-5.9c-5-2.5-8.2-6.6-10.8-11.4
		c-1-1.8-2.1-3.6-3.4-5.2c-1.8-2.4-4.4-3.5-7.5-3.6c-3.6-0.1-7.2-0.2-10.8-0.5c-4-0.4-5.5-2-6.3-6c-1.3-6.3,0.2-12.3,2.1-18.1
		c3.2-9.8,9-17.8,17.8-23.3c3.7-2.3,6.9-5.5,11.5-6.2c1-0.1,1.4-1.1,1.3-2.2c-0.1-2.5-0.2-5,0.4-7.4c0.3-1.1,0-1.7-1.4-1.7
		c-2.5,0-4.9-0.3-7.4-0.7c-6.3-1.1-11.6-12.3-5.9-19.5c1.6-2.1,3.6-3.3,6.4-2.8c2.9,0.5,4.1,2.6,4.7,5.1c0.4,1.6,1,1.6,2.1,0.8
		c2.8-2,4.3-7.5,2.9-10.6c-2.6-6.2-13.5-9.1-19.1-5.2c-7,4.9-12.4,16.5-6.3,25.8c0.9,1.4,0.5,2.4-0.9,3.2c-1.1,0.6-2.1,1.1-3.2,1.7
		c-3.1,1.7-6,3.7-8.1,6.6c-3.3,4.8-5,10.3-6.7,15.8c-0.6,1.8-0.9,3.8-2.1,5.3c-1.5,1.8-1.4,3.4-0.7,5.5c1,3,1.7,6.2,3,9.1
		c1.5-0.4,1.3-2.1,2.8-2.3c0.5,1.2,0.2,2.3-0.1,3.4c-2.8,10-1.7,19.5,2.8,28.8c0.4,0.8,0.8,1.6,0.1,2.4c-0.7,1-1.6,0.5-2.4,0.2
		c-1.1-0.3-1.9-1-2.6-2c-2.6-3.9-4.3-8.4-6.2-12.7c-0.3-0.7-0.2-1.7-1.7-1.5c-0.1,8.4,3.1,15.8,6.9,23.7c-3.2-1.4-4.4-3.5-5.6-5.8
		c-1,0.8-0.5,1.6-0.3,2.3c0.9,4,2.6,7.7,4.3,11.4c5.3,11.9,10.7,23.7,18.8,34.1C132,412,134.4,413.8,137.7,414.9z M408.4,439.2
		c-2.7-10.3-4.8-20.6-7-30.8c-1.6-7.4-2.4-15-2.7-22.6c-0.4-7,0.1-14.1-0.4-21.1c-1-15.2,2-29.8,7.2-43.9
		c3.2-8.9,7.2-17.6,10.9-26.3c1.5-3.6,3.5-7,6.3-9.8c1.1-1.2,2.3-2.3,3.9-1.7c1.7,0.7,3.5,1.5,3.6,3.8c0.1,1.9,0.1,3.7-0.6,5.4
		c-3.1,8.8-7.4,16.9-11.5,25.2c-1.4,2.8-2.7,5.6-4.3,8.3c-2.9,5.1-6.2,10.1-9,15.3c-2.8,5.1-4.6,10.6-2.6,16.6
		c0.8,2.4,2.5,3.9,4.8,4.6c2.3,0.7,3.1,0,3.1-2.4c0-4,0.8-7.7,3-11.2c2.9-4.7,6.5-8.9,10.4-12.8c6.6-6.5,11.9-13.8,13.9-23.2
		c1.6-7.5,3.9-14.8,1.9-22.6c-1.1-4.3-1.9-8.7-4.8-12.4c-1.5-1.9-3.6-3.1-5.6-2.5c-1.8,0.6-2.8,0.1-4-0.7c-1.8-1.3-3.6-1.2-5.4-0.2
		c-4.1,2.3-7.6,5.3-10.9,8.5c-1.8,1.7-3.3,3.7-4.6,5.8c-6.5,10.6-10.4,22.2-11.9,34.5c-1.1,8.5-1.7,17-2.2,25.5
		c-0.3,4.7-0.1,9.5,1.3,14.1c1.3,4.1,0.7,8.3-0.8,12.2c-0.7,2-0.9,4-0.9,6.1c0,3.7,0.8,7.3,0.8,11c0,3.8-0.9,4.8-4.8,4.9
		c-1.3,0-2.7,0.2-3.5,1.2c-2.3,3.1-5.6,3.4-9,3.6c-2,0.1-3.7-0.4-4.9-2c-0.6-0.9-1.4-1-2.3-0.9c-5.9,0.5-11.7,1-17.6,1.5
		c-5.9,0.5-11.5,2.4-17.5,2.4c-1.1,0-1.4,0.5-1.3,1.5c0.8,6.8-0.7,5.9,6.4,5.8c0.3,0,0.6-0.1,0.9-0.1c5.9-0.7,11.7-2.3,17.8-2.2
		c10.3,0.1,20.4-1.4,30.4-3.3c3.4-0.7,5.2,0.6,5.2,4c0,5.7,1.4,11.1,2.7,16.5c0.2,0.8,0.6,1.3,1.2,1.6
		C400.1,429.2,404.5,433.8,408.4,439.2z M451.7,312.6c0.6,1.2,0.3,2.2,0.1,3.3c-0.9,4.7-3.2,9.1-3.9,13.8
		c-1.1,7.8-4.3,14.8-7.9,21.7c-1.8,3.6-4.5,6.6-6.8,9.8c-1.4,2-1.1,3.8,0.8,4.9c5.2,2.8,10,2.9,14.4-2.1c3.2-3.6,4.8-7.9,6.4-12.2
		c3.4-9,6.2-18.3,8.4-27.7c1.1-4.6,1.6-9.3,0.5-14c-0.1-0.5-0.4-1.1,0.7-1.4c0.7,2.7,1.3,5.5,2.2,8.2c1,3.3,1.2,6.9,3.8,9.7
		c1.7,1.8,2.7,1.9,4.4,0.2c2.3-2.4,3.2-5.3,3.3-8.5c0.4-7.6-1.6-14.9-3.7-22.1c-2.2-7.7-7.1-13.4-14.6-16.8
		c-0.5-0.2-0.7-0.6-0.5-1.1c2.9,0.5,5.1-1,6.9-2.9c4.9-5.1,5.4-11.4,4.1-17.9c-2.2-10.8-11.9-16.2-21.9-16.4
		c-5.2-0.1-9.3,2.2-12.5,6.3c-2.8,3.5-4.9,7.2-5,12c-1.5-2.4-2.7-5-6.1-4.3c-1.3,0.3-2.1,1.3-2.3,2.8c0.8,0.1,1.3,0.2,1.8,0.3
		c2.5,0.3,3.3,1.2,3.2,3.8c-0.2,4.3-2.9,7.2-7,7.6c2.2,3.1,6.2,3.7,9.2,1.4c1.5-1.2,1.5-2.8,1.7-4.5c0.2-1.6-0.5-3.2,0.4-5.3
		c0.9,2,2.4,2.8,4.1,3.1c0.1-0.4,0.2-0.6,0.2-1c0.7-5.4,6-9.2,11.2-7.4c4.1,1.4,7.3,4.2,8.4,8.8c0.8,3.3,0.6,6.7-0.3,9.9
		c-1.5,5.9-7.9,10.5-13.6,9.9c-2.6-0.3-2.7-0.3-2,2.4c1,3.9,1.9,7.9,1.3,11.8c-1.2,8.9-3.5,17.5-7,25.8c-0.9,2.1-0.5,5.2,1.1,6.7
		c1.7,1.6,4.3,1.9,6.5,0.8c3.3-1.6,5.8-4.1,7.1-7.7C450,320.6,451.2,316.7,451.7,312.6z M376.9,386.4c0.6-0.1,1.1-0.1,1.5-0.3
		c6.8-2.7,10.3-8,12-14.8c0.9-3.6,0.4-7.1-0.7-10.6c-1.4-4.2-4.1-6.8-8.5-7.8c-5.2-1.3-9.8,0.4-14.2,2.7c-4.6,2.5-8.9,5.6-14,7.2
		c-2.8,0.9-5.6,1.4-8.5,1.2c-3.3-0.3-5.2-2.3-5-5.3c0.2-2,0.6-4,1.7-5.9c3.1-5.6,8.2-9.4,12.6-13.7c6.1-6,11.7-12.2,13.9-20.8
		c1.8-6.9,1-13.8,0.2-20.7c-0.4-3.4-1.5-6.5-3.7-9.2c-4.5-5.8-10.7-6.9-17.5-5.9c-4.6,0.7-8.8,2.8-13.1,4.1c-5.7,1.7-7.9,5.5-10,10
		c-0.9,1.9-1.6,3.8-2.7,5.6c-0.5,0.8-1.7,1.5-1.1,2.7c0.7,1.2,1.9,1.4,3.3,1.5c3,0.2,5.6-1.2,8.4-1.9c2.7-0.7,5-1.9,7-3.9
		c3-3.2,6.2-6.1,10.9-6.9c2.9-0.5,5.2,0.4,6.7,2.9c2,3.5,2.8,7.3,2.1,11.3c-1.5,8.9-6.8,15.8-12.3,22.4
		c-4.5,5.4-10.1,10.1-14.6,15.5c-4.9,5.8-9.8,11.7-6.2,20.5c1.3,3,2.8,5.5,4.6,8.2c4.4,6.6,14.5,5.6,19.6,1.9
		c3.7-2.7,7.3-5.7,10.8-8.7c3.9-3.3,8.1-5.4,13.3-4.2c3.9,0.9,5.5,3.1,5,7.1c-0.4,3-2.1,5.3-3.9,7.5c-0.5,0.6-1,0.9-0.2,1.7
		C376,381.8,376.7,383.9,376.9,386.4z M412.5,224.2c0-0.3,0-0.5,0-0.6c0.3-0.3,0.6-0.5,0.9-0.8c5.4-5.4,11.1-10.4,13.4-18.1
		c1.8-6,3-12.1,3.2-18.3c0.1-3.8-0.2-7.9-3.2-11c-3.3-3.3-6.7-6.5-11-8.4c-9.9-4.3-20.1-4.7-29.7,0.6c-4.2,2.3-9,4.4-10.9,9.6
		c-0.3,0.9-1.6,1.7-0.6,2.7c0.8,0.8,1.9,0.4,2.9-0.1c3-1.5,6.1-2.4,9.3-2.9c2.9-0.5,5.8-0.7,8.2,1.4c0.8,0.8,1.2,0.2,1.8-0.1
		c5.6-3,11.3-3.6,16.9-0.3c6.8,4,7.5,7.6,5.5,13c-0.9,2.3-2.4,3-4.7,2.2c-1-0.3-1.9-0.8-2.8-1.3c-3.7-2.2-7.7-3.4-12.1-3.5
		c-2.5,0-4.9,0.5-6.9,2.7c1.1,0.2,2,0.4,2.8,0.5c0.9,0.2,1.9,0.3,2.8,0.6c2.7,0.8,4.2,2.6,4.2,4.8c-0.1,3.4-1.5,6.2-4.6,7.8
		c-1.9,1-3.2,1.9-1.9,4.2c0.5,0.9,0.2,1.9,0.1,2.8c-0.2,2.2-1.2,4-2.2,6.2c5.3-0.7,9.1,1.9,12.8,4.7c0.7,0.5,1,1,1,2.1
		c0,2.2-1.2,3.1-2.7,4.1c-1.6,1-3.2,1.9-4.7,2.8c-1.1,0.7-2,1.6-1.9,3c1.3,0.3,2-0.6,2.8-1.2c1.4-1.2,2.7-2.5,4.2-3.6
		c2.5-1.8,5.1-1.7,7.6,0.1c2,1.4,2,3.7-0.1,4.8c-4.8,2.5-7.2,7-9.1,11.6c-1.4,3.4-1.1,6.9,2,9.6c3,2.7,6.2,5.1,8.7,8.2
		c0.2,0.2,0.4,0.5,0.8,0.2c-1.5-8.9-1-10.5,5.2-17.4c0.6-0.7,1.2-1.5,1.9-2.2c3.3-3.1,3.6-7,2.9-11c-0.6-3.7-2.6-5.2-5.8-4.7
		c0.6-2,0.3-3.9-1.2-5.3C416.3,222.2,414.4,224.3,412.5,224.2z M274.2,192.6c2.5,1.4,1.2,3.2,0.7,4.6c-4.3,14.5-2.9,28.4,4.8,41.5
		c0.4,0.7,1.2,1.6,0.3,2.4c-0.8,0.8-1.8,0.4-2.7-0.1c-1.6-0.9-2.4-2.5-3.4-3.9c-6.2-9.2-8.6-19.3-7.1-30.3c0.7-4.9,2.7-9.4,5.7-13.6
		c-3.3,0-5.1,0.7-6.2,3.3c-5.8,13.2-8,26.4,0.4,39.5c0.3,0.4,0.8,0.9,0.1,1.7c-5.2-5-6.9-11.4-8.2-18.1c-1.3-6.9-0.2-13.5,2-20.1
		c-0.4,0.2-0.6,0.4-0.8,0.7c-0.4,0.9-0.9,1.7-1.2,2.6c-4.3,12.5-1.6,23.9,5.8,34.4c1.7,2.4,4.1,3.9,7.4,4.1
		c4.7,0.3,9.3,1.6,13.3,4.2c3,1.9,6.1,3.7,9.6,5.8c-1.1-2.2,0.1-3.6,0.7-5.1c2.1-4.9,4.3-9.9,4.8-15.2c0.8-8.9,1.3-17.9,0.9-26.8
		c-0.1-3.6-0.9-7.1-2.4-10.4c-0.4-0.9-0.9-1.8-2.1-1.6c-1.9,0.3-3.7,0.7-5,2.5c-3.5,4.8-4.6,10.4-4.8,16c-0.4,9.3,0.9,18.5,4.2,27.3
		c0.2,0.7,0.9,1.4,0,2.1c-3.3-2.5-5.2-5.8-6-9.8c-0.7-3.3-1.3-6.6-2.1-9.8c-1.5-6.2-1.2-12.4,0-18.5c0.7-3.7,2.1-7.2,3.2-11.1
		C282.4,191.5,278.5,191.4,274.2,192.6z M287.1,287.9c-0.9-4.2-4-6.8-6.1-10.1c-1.4-2.2-3.3-3.7-5.7-4.6c-5.4-1.8-10-5-13.7-9.2
		c-5.3-6.1-10.4-12.4-17.9-16c-3.5-1.7-6.1-4.7-9.7-6.2c-6.4-2.7-13.2-3.1-19.8-4.3c-2.7-0.5-5.4-0.4-8-0.7c-2.8-0.3-4.2,0-4.9,2.9
		c0.6,0.4,0.9-0.9,1.6-0.2c-0.2,0.7-0.8,0.8-1.3,0.9c-1.6,0.3-1.7,1.5-1.5,2.8c0.2,1.6,1.4,0.8,2.2,0.7c2.2-0.1,4.5-0.6,6.6-0.2
		c2.9,0.6,5.8,1.8,8.6,3c5.6,2.3,10.6,5.5,15.7,8.7c5.1,3.1,10.3,6.1,14.8,10.1c4.8,4.3,9.4,8.9,14.9,12.4
		C270.3,282.7,278.1,286.5,287.1,287.9z M329.2,429.6c1.4-0.3,2.2-0.6,1.8-2.1c-2.3-8.3-1.8-17-2.9-25.4
		c-1.6-11.5-1.9-23.1-3.7-34.5c-0.2-1.5-0.5-2.8-1.8-3.8c-3.1-2.3-5.2-5.5-7.6-8.5c-0.4-0.5-0.9-0.9-1.5-1c-5.4-1.1-10.8-1-16.1-0.2
		c-5.3,0.8-10.4,3-15.9,2.7c-4.9-0.3-8.5,1.8-11,5.8c-1,1.7-2.6,2.9-4.1,4c-2,1.4-2.9,3.2-2.9,5.5c0,3.4-0.1,6.9,0.2,10.3
		c1,11.4,0.3,22.8,0.8,34.2c0.2,4.2-0.6,8.3-0.8,12.4c-0.1,1.6,0.2,3,1.5,4.1c2.7,2.1,4.6,4.7,6,7.7c0.6,1.2,1.4,1.9,2.8,1.9
		c4.1,0.1,8.1,0.4,12.2,0.4c3.8,0,7.5-0.5,11.3-0.3c3.6,0.2,7.2-0.4,10.8-0.1c4.8,0.4,9.7,0.3,14.5,0.5c1.3,0.1,2.4-0.2,3.2-1.2
		c1.8-2.5,2.5-5.7,5-7.9c0.3-0.3,0.5-1.2-0.2-1.7c-0.7-0.5-0.9,0.2-1.3,0.6c-1.8,1.9-3.8,3.7-5.4,5.8c-1.3,1.8-2.8,2-4.7,2
		c-5.3-0.1-10.7-1-16-0.9c-8.4,0.1-16.7-1-25.1-0.6c-2.8,0.1-5.5,0.1-6.2-3.5c-0.1-0.6-0.9-1.1-1.2-1.8c-1.1-2.3-3.9-3.7-3.7-6.5
		c0.3-5.3-0.1-10.5,0-15.8c0.2-7.6,0.4-15.2,0-22.8c-0.3-6.5-0.8-12.9,0.2-19.4c0.2-1.6,0.8-2.8,2.4-3.5c3-1.3,5.5-3.5,7.8-5.9
		c0.7-0.7,1.5-0.8,2.4-0.9c9.1-1.2,18.3-1.4,27.4-1.8c3.8-0.1,7.1,0.8,8.9,4.6c0.4,0.8,0.9,1.6,1.6,2c3.5,2.3,4.5,5.6,4.3,9.6
		c-0.1,2,0.1,4.2,0.5,6.2c1.6,9.3,2.4,18.7,3.4,28C326.8,415.1,327.9,422.3,329.2,429.6z M331.1,223.4c0.6-0.4,0.9-0.6,1.1-0.8
		c0.7-0.4,1.1-1.6,2.2-0.8c1.1,0.8,0.4,1.7,0,2.6c-0.7,1.8-1.8,3.4-3,4.9c-0.6,0.8-1.2,1.5-0.9,2.9c1.3,5.5,8.6,8,12.8,7
		c3.8-0.9,7.1-2.8,10.3-5c1.7-1.2,3-2.8,3.7-4.9c1.1-3.3,0.2-5.5-3.1-6.5c-2.5-0.8-5-1.7-7.2-3.2c-3.5-2.2-5.8-5.7-8.9-8.3
		c-0.6-0.5-0.9-1.3-0.2-2.2c1.8,0.5,3.5,1.5,5.5,1.3c5.8-0.5,11.2-2.3,15.9-5.8c0.8-0.6,1.8-1.3,1.1-2.5c-0.7-1.3-2-1.7-3.3-1.1
		c-1.2,0.5-2.2,1.2-3.3,1.9c-4.9,3.1-10.1,2.9-15.1,0.7c-3.8-1.7-7.2-4.1-10.3-6.9c-1.4-1.2-2.9-2.4-5.1-2.6
		C330.6,202.4,331,212.6,331.1,223.4z M292,302.4c0,1.2-0.1,2.3,0,3.4c0.4,6.4-0.2,12.8,0.6,19.2c0.9,7.5,2,15,1,22.7
		c-0.2,1.6,0.1,3.2,0.3,4.8c0.1,0.9,0.5,1.3,1.4,1c2.9-1,6-0.3,9-0.8c1.5-0.2,1.8-0.8,1.9-2.1c0.1-6,0-12-0.2-18
		c-0.4-10.9-2.2-21.7-1.2-32.6c0-0.5,0.2-1.1-0.3-1.5c-1.4,2-2.9,1.9-4.9,0.7c-2.2-1.3-4-3.1-6.5-4c-0.9,2.8,1.7,5.4,0.4,8.1
		C292.7,303.2,292.9,302.3,292,302.4z M210.3,235.6c0.3-2.1-0.8-3.6-2.5-4.5c-1.4-0.8-2.9-1.2-4.4-1.7c-4.3-1.5-8.8-1.4-13.1-2.8
		c-3.4-1.1-7.1-1.6-9.7-4.3c-1.5-1.6-2.5-3-5.5-2.2c-4.7,1.2-8.1,3.1-9.5,7.9c-1,3.5-1.9,6.9-2.8,10.4c-0.5,2.2-1.6,3.7-4,3.8
		c-1.6,0.1-2,1.1-2.1,2.4c-0.4,3.8,2.7,6.1,6.9,5.2c1.6-0.4,3-0.9,4.7-0.8c2.2,0.1,2.8-0.6,2.4-2.8c-0.2-0.8-0.5-1.5-0.8-2.3
		c-0.8-2.3-0.8-4.3,0.9-6.5c2-2.4,4.3-2.1,6.4-1.2c5.8,2.5,11.9,3.4,18.1,4.2c2.3,0.3,4,0,5.1-2.4c0.9-2,2.4-3.4,5.1-2.7
		C207.1,235.7,208.7,236.2,210.3,235.6z M340.4,272.1c0.9-1,1.5-1.6,2-2.3c5.5-7.7,11.1-15.1,18.3-21.4c4.9-4.3,10.1-7.9,16.6-9.5
		c1.9-0.5,3.8-1.1,5.7-1.8c1.6-0.6,2.6-1.5,1-3.3c-1.1-1.2-2-2.7-3-4c-1.2-1.7-2.9-2-4.9-2.5c-4.4-0.9-7.7,1.4-10.7,3.4
		c-8.1,5.6-16.3,11.3-20,21.1c-1.6,4.3-5.1,7.5-7,11.7c-0.3,0.7-0.9,1.4-0.4,2.2C339.2,267.7,339.5,269.8,340.4,272.1z M259.3,485.6
		c1.4,1.5,2.3,3.3,3.7,4.7c2.8,2.8,5.9,5.3,8.6,8.3c4.4,4.9,7.3,10.7,9,16.9c1.3,4.5,1.5,9.3,3,13.8c0.8,2.6,0.4,5.5,1.7,8
		c0-4.3-0.3-8.6,0.1-12.8c0.3-4.2,0.4-8.4-1.8-11.9c-1.7-2.7-1.7-5.5-2.6-8.3c-2.6-8.1-7.5-14.8-14.5-19.4
		c-10.8-6.9-19.2-16-27.2-25.7c-1-1.2-2.1-1.5-3.5-1.7c-1-0.1-1.6,0.2-1.1,1.4c0.5,1.3,0.3,2.5-0.8,3.7c-0.7-1-0.2-1.9-0.4-2.7
		c-0.2-0.6,0.5-1.9-0.9-1.7c-1,0.1-2,0.7-1.7,2.1c0.2,0.9,0.5,1.8,0.9,2.7c2.7,5.8,7.4,9.8,12.4,13.5c0.7-0.6-0.4-1.6,0.6-2.1
		c3.6,5.7,8.5,9.8,13.9,13.6C259.5,487.1,258.4,486.5,259.3,485.6z M299.7,286.5c0.8-0.5,1-1.2,1.1-1.9c0.5-4.4,0.7-8.8-1.2-13
		c-3.2-7.2-8.9-11.6-16-14.3c-4.4-1.7-9.1-2.6-13.8-0.6c-2.1,0.9-4.1,2.3-4.6,4.8c-0.9,4.6,4.9,11.2,9.9,9.1c0.9-0.4,2-0.3,3.1-0.1
		c7,1.7,12.9,5.3,17.8,10.6C297.5,282.8,298.5,284.7,299.7,286.5z M480.5,334.6c-0.8,0.4-1.5,0.8-2.2,1.1c-4.3,1.9-7.1,0.5-8.6-4
		c-1.4-4.1-2.5-8.4-3.5-12.6c-0.1-0.5,0-1.2-0.9-1.2c-1.8,12.2-5.9,23.7-9.8,35.5c0.5,0,0.8,0,1.1,0c3.7-0.6,5.4,0.8,5.4,4.7
		c0,2-0.7,3.8-1.3,6.2c4.9-4.3,9.1-8.5,13.3-12.7C478.6,346.9,481.5,341.8,480.5,334.6z M125.7,440.4c0.4-4.1,1.4-7.8,0.8-11.6
		c-1.4-9-5.2-17.1-9.2-25.1c-3.5-7.1-7.3-14-10.8-21.1c-2.8-5.7-5-11.7-6.4-18.3c-1,2.2-0.9,4.1-1.1,6c-0.8,6.4-1,12.8,0.9,19
		c2.9,9.1,7.6,17.1,13.5,24.6c2.1,2.7,4.7,4.9,6.8,7.6c3.3,4.2,4,9,4.5,14.1C124.9,437.2,124.4,438.7,125.7,440.4z M446.8,463.4
		c0,2.1-0.1,4.2,0,6.2c0.1,2.1,0.6,4.1,1.3,6.1c1.8,4.9,7.1,6.8,11.4,3.9c4.9-3.2,6.1-7.5,4.4-14.1c-0.7-2.9-1.7-3.7-4.5-1.3
		c-1.9,1.6-2.5,0.7-3-0.9c-1.4-4.5-0.8-8.7,2-12.5c0.5-0.7,1.3-1.2,0.8-2.3c-1.3-2.9-1.9-6.1-2.4-9.2c-0.1-0.8,0.4-2.1-1-2.4
		c-1.1-0.2-1.5,1-2.3,1.6c-0.4,0.3-0.6,0.8-0.8,1.2C448.7,447,446.3,454.8,446.8,463.4z M142.8,389.7c0.6,3.3,2.9,5.7,4.6,8.3
		c3.7,5.5,7.3,11.1,13,14.8c2.6,1.7,4.2,1.4,6.3-0.9c2.1-2.2,2.8-5.2,4-7.8c3.4-7.6,8.1-10.5,16.3-9.7c1.5,0.1,2-0.3,2.3-1.7
		c0.5-2.8-2.1-6.1-5.2-6.3c-3.4-0.1-6.9-0.8-9.6,2.5c-1.1,1.3-2.9,2.2-4,3.6c-1.7,2.1-3.8,3.5-6.3,4.6c-1.7,0.8-3.2,0.8-4.8,0.1
		C153.9,395,147.8,393.8,142.8,389.7z M366.4,384.5c-1.1,0.7-2.1,1.5-3.2,1.9c-1.4,0.5-3,0.4-3.8-1c-0.7-1.1-0.8-2.4,0.2-3.5
		c2.1-2.2,5.8-1.8,7.4,1c1.8,3.1,2.2,6.4,0.8,9.8c-1.1,2.7,0,6.5,2,7.7c3.2,1.9,9.1,0.4,11.1-3.2c-1.1,0.4-2,1-3,1.1
		c-1.6,0.2-3.3,0.5-4.5-0.8c-1.2-1.3-0.8-3,0-4.5c0.6-1.2,1-2.5,1.6-3.7c1.4-2.9,1.1-5.7-1-8c-3.3-3.7-7.6-5.6-12.5-6.3
		c-4-0.6-10.7,6.3-11.1,9.6c-0.2,1.4,0,2.8,0.7,4.1c2.4,4.2,6.4,4.4,10.4,4.6c6.3,0.3,7.3-3.3,5.2-8.3
		C366.7,384.8,366.6,384.7,366.4,384.5z M416.6,466.1c-0.2-0.9-0.3-1.4-0.4-1.9c-1.2-3.8-2.7-7.5-3.7-11.4c-3-11.8-9-21.2-20.5-26.4
		c-4.2-1.9-5.6-1.5-7,2.9c-1.2,3.7-2.9,7.1-5.3,10.1c-1.1,1.4-2.4,3.1-4.5,2.6c-2-0.4-3.1,0.4-4,1.8c-1.1,1.7-2.6,3.9-1.1,5.4
		c1.4,1.4,3.7,0.3,5.4-1c3.7-3,7.3-6.1,9.9-10.3c2.7-4.4,6.7-5.1,10.8-1.9c6.4,4.9,11,11.3,14.2,18.6c1.2,2.7,2.2,5.5,3.4,8.2
		C414.2,464,414.9,465.2,416.6,466.1z M256.5,300.7c0.2,0.1,0.4,0.2,0.7,0.3c0,3.2,2.6,5.2,3.3,8.1c0.1,0.4,0.4,0.7,0.9,0.5
		c1.2-0.6,1.1,0.3,1.2,1c0.2,0.8,0.5,1.5,0.7,2.3c0.2,0.7,0.6,1,1.3,0.6c0.4-0.2,1.5,0.1,1.2-1c-0.1-0.3-0.3-0.5,0.2-0.7
		c3.3-1.2,6-3.6,9.4-4.6c2-0.6,1.5-2,0.9-3.3c-0.8-1.7-1.6-0.1-2.2,0.2c-0.9,0.4-1.6,1-2.4,1.5c-0.5,0.3-0.8,1.1-1.6,0.7
		c-0.4-0.2-0.5-0.7-0.2-1.1c0.5-0.6-0.4-1.9,1.1-2c2.7-0.1,3.9-2.2,4.9-4.3c1.5-3.1,0.8-4.6-2.6-5.2c-2.6-0.4-5.1-1-7.6-2.1
		c-2.9-1.2-5.6-0.8-8,1.2c-2.4,2-4.4,6.1-2,9.6C255.8,302,256.1,301.3,256.5,300.7z M432.2,264.3c-0.1,4.1-0.3,5.4-1.4,7.3
		c-1.1,1.7-0.3,2.5,1.2,3.1c1,0.4,1.9,0.7,2.7,1.5c2.3,2.5,7.8,3.3,10.6,1.5c3.8-2.6,5.7-6.3,5.3-10.8c-0.4-5.5-3.5-6.9-8-3.8
		C439.4,265.1,436.2,266.6,432.2,264.3z M265.7,191.5c-3.2-2.2-5.8-1.7-8.1,1.1c-1.2,1.4-2.6,2.6-3.8,4c-2.2,2.6-4.8,4.3-8,5.3
		c-4.2,1.3-8.5,1.9-12.9,1.7c-0.9-0.1-2,0.1-2.2,1.3c-0.2,1.8-0.4,3.8,1.2,5.1c0.8,0.6,1.5,2.1,2.9,1c0.6-0.4,1-0.3,1.6-0.3
		c3.8-0.1,7.6-0.4,11.1-2.2c4.8-2.4,9.7-4.8,12.5-9.7C261.4,196,263.2,193.6,265.7,191.5z M370,214c0.7-2.2,1.4-4,3-5.3
		c1.3-1,2.7-1.1,4-0.4c1.4,0.7,0.1,1.8,0.1,2.8c0,0.7-0.2,1.4-0.4,2.1c-1.2,4.3,0,9.2-3.4,12.9c3-1.4,5.5-3.2,7.7-5.5
		c3.9-4,5.9-8.9,5.9-14.5c0-1.5-0.4-2.9-1.7-3.8c-2.1-1.5-8.9-1.5-11.1-0.1c-2.4,1.5-3.8,3.5-4.8,6.3
		C368.7,210.6,368.2,212.1,370,214z M144.8,472.4c-0.2-6.9-2.6-13-6.5-18.9c-0.5,1.8,0,3.4-1,4.8c-1.2-0.7-2.3-1.4-3.4-2.1
		c-0.8-0.6-1.6-0.5-2.5-0.1c-3.2,1.6-4.5,5.8-2.7,8.8C132.4,471,138.1,472.7,144.8,472.4z M177.2,397.8c-3.1,1.2-4.2,3.3-5.2,5.5
		c-1.4,3.1-2.8,6.3-4.1,9.4c-1.2,2.8-3.4,4.4-6.1,5.1c-2.3,0.6-4.2,1.9-6.1,3.1c-1.3,0.7-1.1,1.4-0.2,2.2c4.7,4,10.1,4.3,14.1-1
		c2.5-3.4,4.4-7.2,5.4-11.4c0.2-0.8,0.4-1.6,0.2-2.4C174.3,404.7,174.8,401.4,177.2,397.8z M200.9,291.9c-0.4,2.3-0.7,4.1-0.1,5.9
		c1.6,5.3,6.5,8.2,12.8,7.6c3.5-0.3,4.7,0.6,5.3,4.1c0.7,4.1,0.2,8.1-1.1,12c-1.3,3.9-2.8,7.8-4.1,11.7c-2.9,9.6-1.1,18.3,5.3,26
		c0.7,0.9,1.4,1.7,2.6,2.3c0-0.8-0.5-1-0.8-1.3c-4.4-5.3-7.7-11-7.5-18.1c0.2-6.3,2.1-12.2,4.7-17.9c2.3-5,3-10.2,1.8-15.6
		c-0.9-4.1-4.3-6.9-6-10.6c-0.7-1.5-2.7-2.6-4.5-2.9C206.4,294.5,203.5,293.9,200.9,291.9z M224.2,371.9c-0.2,0-0.3-0.1-0.5-0.1
		c-0.8,1.5-1.5,3-2.3,4.4c-1.4,2.3-1.8,4.5-0.1,6.8c0.6,0.8,0.5,1.8,0.5,2.8c-0.1,4.3-2,8-4,11.6c-1.4,2.5-1.1,3,1.7,3.7
		c1.3,0.3,2.6,0.1,3.8,1.1c0.7,0.6,2,0.3,2.9-0.3c0.6-0.4,0.8-1.1,0.4-1.7c-1.9-3.5-0.6-6.6,1.1-9.7c0.8-1.4,1.4-3.1,0.2-4.5
		c-2.5-3.1-2.6-6.7-2.3-10.4c0.2-2.2,0.5-4.4,0.9-6.9c-1.9,1.8-1,4-1.8,5.8C224.5,373.5,224.3,372.7,224.2,371.9z M122.1,458.8
		c1.4-3.1,2.3-6.5,5.3-8.3c3-1.9,6.1-2.6,9.5,0.2c-0.9-3.3-1.7-6.1-3.9-8.4c-1.6-1.6-4.4-2.2-6.4-1.2
		C119.9,444.5,117.9,452.1,122.1,458.8z M317.7,199c-0.9,6.7,2.5,13,1.6,19.9c-0.9,6.6-0.8,13.4-3.9,19.8c2.1-0.2,3.3-1.6,4.8-1.8
		c1.2-0.2,1.7-1,1.8-1.9c0.4-2.2,0.8-4.4,0.8-6.6c0.2-5.9-0.4-11.8-1-17.7C321.5,206.6,320.9,202.4,317.7,199z M349.6,549.6
		c0.4-4.8,4.1-7.1,6.7-10.8c0.4,2.3-0.8,3.3-1.3,4.6c-0.6,1.7-0.6,2.4,0.5,3.9c0.1-1.1,0.1-2,0.3-2.9c0.2-0.9,0.6-1.8,1-2.7
		c1.2-2.6,3.2-3.7,6.1-3.4c0.5,0.1,1.3,0.3,1.2-0.6c0-0.7-0.6-1.2-1.3-1.1c-1.2,0.2-2.3,0.5-3.5,0.7c-0.9,0.1-1.9,0.1-1.6-1.3
		c1.7-6.8,4.5-13,11.3-16.3c0.6-0.3,1.2-0.4,1.5-1.1c0.7-1.9,1.9-3.7,2.3-5.7c-3.6-0.6-6.2,0.6-8,3.7c-1.9,3.1-3.3,6.5-5.8,9.3
		c-1.6,1.8-2.6,4-3,6.4c-0.9,4.6-2.2,9.2-5.8,12.6c-0.4,0.4-0.7,0.9-0.9,1.4C348.7,547.3,348.6,548.5,349.6,549.6z M509.1,476.2
		c-1.6,0-2.5-0.5-3.3-1.3c-2.5-2.2-5.2-4-8.8-3.6c-1.1,0.1-1.7,0.4-1.2,1.8c2,5.6,4.3,11.2,4.9,17.7
		C504.4,486.2,505.8,481,509.1,476.2z M186.6,251.3c0.1,2.9,0.6,4.9,1.8,6.7c0.9,1.4,1.6,1.8,2.9,0.4c3.4-3.5,5.2-8,7.7-12
		c0.7-1.1,0-1.7-1.3-1.6c-2.6,0.2-5.3,0.6-7.5,2C188.2,248,186.5,249.5,186.6,251.3z M267.3,193c1.4,0.2,2.6-0.6,3.9-0.9
		c5-1,10.1-1.4,15.1-2.1c8.5-1.2,16.9-1.9,25.2,1.4c1.8,0.7,3.7,1,5.6,0.7c0.8-0.1,2.1,0.4,2.1-0.9c0-1.2-0.6-2.6-2.1-2.5
		c-4.7,0.3-9.4-1-14.1-1c-6,0-12-0.2-17.9,0.3c-5.7,0.4-11.3,0.6-16.5,3.4C268,191.8,267.2,191.9,267.3,193z M299.7,253.9
		c2.9-3.5,5.6-7.1,8.6-10.3c2.7-2.9,2.8-2.7-0.6-4.4c-0.5-0.2-1-0.4-1.6-0.5c-1.4-0.4-2.3-0.1-3.1,1.4c-1.4,2.7-3.5,4.9-5.6,7
		c-1.5,1.6-1.3,3.9,0.4,5.3C298.4,252.8,299,253.3,299.7,253.9z M279.6,169.8c-0.5,1.9-3,1.3-3.3,3.3c-0.1,0.9-1.5,1.6-2.3,2.4
		c-0.6,0.6-0.6,1.1,0.3,1.4c1.7,0.6,3.5,1.5,5.3,1c3.4-0.8,6.8-1.6,10.3-2.1c0.4-0.1,1.2-0.4,1.2-0.6c-0.2-2.2-2.8-2.6-3.5-4.5
		c-0.3-0.7-0.8-0.7-1.3-0.3c-0.1,0-0.1,0.1-0.2,0.1C283.9,172,281.8,171.6,279.6,169.8z M339.2,273.1c-4.5,2.4-9.3,4.1-14,6.1
		c-10.6,4.4-11.8,5-13.1,7.5C322.5,284.8,332.1,281.5,339.2,273.1z M330,430.8c5.9,2.3,10.9,6.1,17.4,7.2c-0.7-2.4-0.4-5.1-2.4-6.9
		c-2.4-2.3-11.2-2.8-14-1.2C330.7,430.2,330.4,430.5,330,430.8z M177,183.2c-2.4,1.3-4.2,2.4-5.7,3.9c-3.9,3.6-4.3,7.2-1.5,11.7
		c0.7,1.1,1.5,2.4,2.9,2c1.4-0.3,0.9-1.9,1-2.8C174.5,193.1,174.1,188.1,177,183.2z M296.1,174.8c3.8-0.2,6.9,0.5,9.9,1.9
		c2,0.9,4,0.1,6-0.4c0.9-0.2,0.8-0.9,0.2-1.2c-2.3-1.2-4.4-3.6-7.3-2.6c-2.5,0.8-3.9-0.3-5.4-1.7c-0.4-0.4-0.6-1.2-1.6-1
		C297.6,171.2,297.1,172.8,296.1,174.8z M394.4,447c2.6,3.2,5.1,6.4,7.8,9.5c2.6,2.9,4.9,6.3,8.5,8.3c1,0.5,1.8,1.5,3.5,0.8
		c-3.6-1.7-5.5-4.7-7.5-7.5C403.4,453.4,399.3,449.8,394.4,447z M425.1,483.3c-0.2-1.9-0.9-2.9-1.5-3.9c-1.9-3.5-4.2-6.8-5.5-10.6
		c-0.3-1-0.6-1.7-1.7-1.3c-1.1,0.5-0.5,1.5-0.2,2C418.9,474.1,421.4,478.7,425.1,483.3z M132.1,419.5c3.8,0.4,7.3,1.6,11.2,2.8
		c-2.3-2.4-4.6-4.2-7.5-5.1C133.9,416.6,132.6,417.1,132.1,419.5z M331.1,141.8c1.2-2.3,2.8-4.5,2.2-7.3c-0.2-0.9-0.5-2-1.7-1.9
		c-1,0.1-1.2,1.2-1.3,2C329.8,137.1,330.9,139.4,331.1,141.8z M277.3,324.8c1.8,0.7,1.8,3.6,3.8,2.9c1.6-0.6,2.1-2.7,2-4.9
		C281.4,324.3,279.4,324.1,277.3,324.8z M329,224.6c-1.2,4.1-3.3,7.7-6,11.1C326,235.8,329,230.2,329,224.6z M329.4,219.2
		c0.6-4.3-1.4-11.9-4-14.4C327.8,209.7,328.2,214.5,329.4,219.2z"/>
	<path d="M348.2,165.2c1-0.1,1.8,0.7,3,0.4c-3.6-7.3-0.3-14.9-1.3-22.4c-0.4-2.9-0.5-5.9-1-8.8c-1.8-9.6-8.6-15.4-16.6-19.1
		c-5.5-2.6-11.9-1.4-17.7,1.1c-1.9,0.8-3.8,1.8-5.2,3.4c-0.4,0.5-0.6,1.5-1.6,1.1c-0.9-0.4-1-1.2-1-2.2c-0.2-3.9-0.7-7.8-1.5-11.6
		c-1.6-7.3-5.6-8.4-11.4-9.8c-1.2-0.3-3-0.1-3.5,1.4c-0.5,1.5,0.6,2.6,1.9,3.1c6.3,2.7,9.2,11.7,5.2,18.7c-0.4,0.7-0.9,1.5-1.8,1.3
		c-0.8-0.2-0.4-1.1-0.5-1.7c-0.4-4.3-0.9-8.6-2.2-12.7c-2.4-7.6-9.9-10.1-16.1-5.3c-2.6,2-3,5.1-2.3,8.1c0.9,3.8,2.5,7.4,4.2,10.9
		c0.5,0.9,1.2,2,2.2,1.9c1-0.1,0.9-1.4,1.1-2.2c0.9-2.9,1.6-5.8,2.5-9.1c2.4,2.5,3,5.4,3.8,8c1.3,4.3,2,8.6,1.6,13.2
		c-0.2,2.8-0.3,5.7,0.9,8.3l0-0.1c0.1,0.5-0.1,1.1-0.7,1.1c-0.7,0-1.1-0.6-1.2-1.3c-0.4-2.2-1.8-3.8-3.3-5.3
		c-0.6-0.6-1.5-2.3-2.7-0.3c-0.4,0.7-1.2,0.3-1.5-0.3c-1.6-3.2-4.7-4.9-6.9-7.5c-1.2-1.4-1.6-3.4-3-4.7c-0.6,0.8-1.1,1.4-1.6,2
		c-0.7,0.9-0.9,1.9-0.2,2.8c1.6,2.1,3.2,4.3,5.7,5.6c1.7,0.8,3.8,1.4,4.5,3.6c-3.8-2.6-8-3.5-12.5-3.5c-1.6,0-2.9,0.5-4.2,1.4
		c-4.7,3.5-6.8,10.4-4.8,16.1c0.6,1.7,1.3,3.4,1.8,5.2c0.7,2.5,0.1,3.5-2.2,4.3c-5.2,1.7-7,0.8-10.2-5.1c-1.1,1.3-1.5,2.8-1,4.4
		c0.4,1.5,0.7,3,1.3,4.3c2.6,6.1,0.9,11.6-1.5,17.3c-1.1,2.6-2.6,4.3-4.7,5.7c-3.1,2.1-6.1,1.8-9.2,0c-3-1.6-3.6-4.3-3.5-7.3
		c0-1.7,0.1-3.4-0.1-5c-0.4-2.5-1.6-3.3-4.1-2.9c-2.9,0.5-5.7,0.7-8.5-0.5c-2.3-1-2.8-2.5-1.7-4.6c2.7-4.9,4.2-10.2,5.1-15.6
		c0.9-4.8,3-9.1,5.1-13.3c0.4-0.8,1-1.7,2-2c-3.8,5.9-5.9,12.4-7.2,19.3c-0.8,4.1-2.1,8.2-4.3,11.9c-0.9,1.5-0.4,2.7,1.1,3.6
		c2.3,1.3,4.7,0.7,7,0.6c1.4-0.1,2.2-0.6,1.6-2.3c-2-6.2-1.8-12.6-1.5-19c0.1-3.1,0.5-6.2,3-8.5c0,2-0.4,4-0.6,6
		c-0.6,7.2-0.5,14.3,2.3,21.2c0.8,2,2,4,1.6,6.4c-0.4,2.3-0.4,4.6,0,6.9c0.9,5.3,7.2,7.8,11.4,4.3c0.9-0.8,1.6-1.9,2.4-2.9
		c3.2-3.5,4.5-7.8,4.7-12.5c0.2-3.9-1.9-7.2-2.6-10.9c-0.5-2.5,0.3-4.4,1.9-6.4c1.5,2,1.2,4.8,4.2,5.8c-4.4-9.1-1.7-18.4-2.1-28
		c-3.7,2.9-6.7,5.6-8.8,9.5c-3.5,6.5-4.8,13.5-5,20.8c0,2.3-0.2,4.7-0.3,7c-0.3,0-0.6,0-0.8,0c-3.2-7.5-3.2-15.3-1.4-23.2
		c1.8-7.8,5-15,10.3-21.3c-4.4,0.2-7.7,2.6-10.9,5.1c-2.4,1.9-3.6,5.1-6.3,6.7c4.1-6.2,8.8-11.5,16.7-12.7c2.8-0.4,5.6-0.3,8.2,0.7
		c4.9,2,10,1.6,15.1,1.4c2.7-0.1,3.9-2.4,4-5.2c0.1-4.3-0.1-8.7,1.3-13c2.3-6.7,9.9-9.9,16.3-6.9c0.3,0.2,0.7,0.3,1.1,0.5
		c0.5-1.2-1.4-1.9-0.6-2.8c1-1.1,2.6-1.6,4.2-1.5c8.8,0.8,12.1,4.2,13.4,12.7c0.5,3.4,0.9,6.8,1.3,10.4c1.5-1.1,2.8-2.3,4.3-3.1
		c6.4-3.7,13.3-3.4,20.2-2.5c0.9,0.1,1.7,0.8,2.5,1.4c5.4,4.2,11.4,7.8,13.6,14.9c1.9,5.9,2.3,11.9,2.1,18c-0.1,3.1-0.3,6.2-0.5,9.3
		c-0.1,2.5,0.3,4.9,1.7,7.1c0.3,0.5,0.7,1,0.3,1.5c-0.4,0.6-1,0.3-1.5,0.1C349.9,166.1,348.9,166,348.2,165.2z"/>
	<path d="M111.9,554c-2.6-0.1-4.8-1-6.5-3.1c-2.3-3-5.4-5.5-6.6-9.2c-1.1-3.4-0.5-5.6,2.6-7.4c3.8-2.2,8.1-3.3,12-5.3
		c2.7-1.4,5.2-3.1,7.6-4.9c2-1.5,3-1.4,4,0.9c1.6,3.6,3.8,6.9,4.3,11c0.7,5.4-2.5,11.7-7.3,14.1c-2.1,1.1-4.2,2.3-6.5,3.1
		C114.4,553.5,113.2,554.1,111.9,554z M127.2,537.1c0.4-3.8-1.6-6.7-3.3-9.8c-0.5-0.9-1.1-1.1-2.1-0.4c-5.6,4-12,6.6-18,10
		c-1.6,0.9-2.2,2-1.7,3.7c0.2,0.9,0.4,1.9,0.7,2.8c1.1,4.4,5.8,7.3,10.2,6.4c3.1-0.6,6-1.8,8.6-3.6
		C124.7,544.2,127.7,541.7,127.2,537.1z"/>
	<path d="M276.4,671.3c1.5-0.7,1.3,1.5,1.1,2.2c-2.1,7.7-1.3,11.8-2.5,19.7c-0.4,2.6-1.2,5.1-2,7.6c-0.2,0.8-0.8,1.4-1.7,1.5
		c-1,0.1-1.4-0.7-1.8-1.4c-1-1.8-1.4-3.8-1.2-5.8c0.4-4.3-0.9-8.6-0.9-12.9c0-1.3-1.6-2.1-1.3-3c1,6.1-1.8,12.2-2.4,18.7
		c-0.1,1-0.5,2-0.9,3c-0.2,0.5-1,1-1.3,0.4c-0.4-1-1.5-1.9-1.2-3.2c2-7.7,2-15.7,3.4-23.4c0.3-1.6,0.5-3.1,0.8-4.7
		c0.1-0.7,0.4-1.2,1.2-1.2c0.9-0.1,1,0.5,1.2,1.2c1.2,4.2,0.8,8.5,1.4,12.8c0.7,4.1,1,8.2,1.8,12.4
		C272.5,685.7,273.2,672.8,276.4,671.3z"/>
	<path d="M123,579.1c-2-2.5-1.6-7.1,0.7-10.2c0.7-0.9,1.5-1.6,2.3-2.4c1.7-1.8,1.4-4.1-0.7-5.5c-2.4-1.5-4.6-2.3-7.2,0
		c-1.8,1.6-4.1,2.8-7,1.6c0.1-1.2,0.9-1.9,1.8-2.3c6.7-3.2,12.4-7.9,18.2-12.2c3.1-2.3,3.4-2.4,6.4,0.2c1.9,1.6,3.5,3.5,4.8,5.6
		c2.7,4.5-0.3,10-5.4,9.5c-4.1-0.5-6.7,0.2-8.4,4.2c-0.7,1.7-2.4,3-3.5,4.5C123.8,573.8,123.5,574.8,123,579.1z M139.7,557.6
		c-0.2-1.9-0.7-3.8-2-5.4c-2.1-2.6-3.2-2.6-6.1-1.1c-2.2,1.2-3.4,3.5-5.6,4.8c-1.9,1.1-1.7,2,0.3,2.9c2.6,1,5.2,2,7.9,2.7
		C136.7,562.2,139.7,560,139.7,557.6z"/>
	<path d="M253.2,695.7c1,0,1.9,0,2.9,0c1.9-0.1,2.1,1.4,2.1,2.6c0,1.4-1.3,1.2-2.2,1.1c-3.1-0.5-6.2,0-9.3-0.9
		c-2.4-0.7-3.3-2.1-2.7-4.5c1.9-8.1,3.8-16.1,5.7-24.2c0.1-0.5,0.4-1.1,0.5-1.6c0.7-2.4,2.1-3.4,4.8-2.7c1.8,0.5,3.6,0,5.4,0.5
		c0.9,0.3,1.9,0.5,1.8,1.5c-0.1,1.1-1.2,0.5-1.8,0.6c-1.4,0.2-2.9,0.4-4.2-0.3c-1.5-0.8-2.1,0.1-2.3,1.3c-0.8,4.3-1.6,8.6-2.4,12.9
		c-0.2,1.1,0.3,1.3,1.3,1.5c1.4,0.2,2.9,0.2,4.3,0.1c0.9-0.1,2-0.2,2.1,0.9c0.2,1.3-1,1.1-1.9,1.2c-1.8,0.2-3.5,0.3-5.2,0
		c-0.9-0.2-1.6-0.2-1.9,0.8c-0.6,1.8-1.3,3.6-1.6,5.5c-0.6,3.1,0.1,3.9,3.3,3.8C252.3,695.7,252.7,695.7,253.2,695.7
		C253.2,695.7,253.2,695.7,253.2,695.7z"/>
	<path d="M281.2,694.7c1.6,0.4,0.6,4,1.8,5.1c1,0.9,3.5,1.6,4.8,0.8c1.4-0.9-0.4-6.8-0.8-7.9c-0.8-2.5-2.9-4.2-4.3-6.3
		c-1.2-2-1.2-2.7-0.9-4.9c0.7-5.4,1.8-11.4,7.2-11.5c0.4-0.4,0.9-0.4,1.3-0.2c0.6,0.3,1.3,0.7,1.8,1.1c1.8,1.6,3.2,9.4,2.2,11.6
		c-0.3,0.7-0.9,1-1.5,0.9c-0.9-0.1-0.8-0.9-0.7-1.5c0.1-2.7-0.9-5-2-7.3c-1-2-1.8-1.9-2.9-0.1c-3.1,5.2-2.2,10.5,2,14.8
		c3.6,3.7,3.6,7.9,2.5,12.2c-0.8,3.1-5.9,4.5-8.5,2.6C279.3,701.2,278.5,694.1,281.2,694.7z M289.3,697.9c-0.2,3.9-0.9,5-4.9,4
		c-4.9-1.2-2.3-6.6-3.3-5.7c-1.1,1-0.2,2.7,0.2,4.1c0.7,2.3,3.7,4,5.6,3.5C289.1,703.1,289.9,701.2,289.3,697.9z M291,695.7
		c0.3-2.8-1.3-4.5-3.2-6.1C288.9,691.7,289.9,693.7,291,695.7z"/>
	<path d="M197.5,681.5c-0.5-1.1,0.2-1.6,0.5-2.1c4.6-7.9,9.2-15.7,13.8-23.6c1.1-1.9,2.6-2.4,4.6-2c5.3,1.2,8,5.8,5.2,10.6
		c-1.8,3-4.4,4.6-7.5,5.5c-1.2,0.4-1.7,0.9-1.5,2.2c0.2,2.5-0.3,5-1.2,7.3c-0.8,2.1-0.9,4.2-0.5,6.4c0.2,0.9,0.8,2-0.8,2.1
		c-1.2,0.1-2-0.6-2.1-1.8c-0.2-1.9,0.1-3.9,0.9-5.6c0.9-2.2,1.1-4.5,1.1-6.8c0-0.8,0.5-2.2-0.7-2.5c-1.4-0.3-2.9-0.3-3.8,1.2
		c-1.3,2.1-2.7,4.2-4,6.2C200.4,679.9,199.2,681,197.5,681.5z M206.7,669.8c5.5,0.3,9.4-1.6,12.1-5.7c1.8-2.8,0.5-6.7-2.5-8
		c-0.9-0.4-1.4-0.1-1.8,0.5C211.8,660.7,209.2,665,206.7,669.8z"/>
	<path d="M350.3,669.8c-0.3-3.1,1.3-5.6,2.5-8.2c0.6-1.3,1.7-0.3,2.3,0c8.2,3.9,12.1,11,12.9,19.6c0.4,4.4,1.7,7.1,6.1,8
		c0.6,0.1,1.9,0.3,1.5,1.4c-0.3,0.9-1.3,0.3-1.9,0.3c-1.4-0.1-2.5-0.9-3.6-1.7c-1.1-0.9-1.8-1.1-2,0.7c-0.1,1.3-0.6,2.5-1.3,3.6
		c-1.9,2.9-5.4,2.7-7.4-0.2c-4.3-6-7-12.7-8.5-19.9C350.6,672.1,350.5,670.9,350.3,669.8z M367.4,686c0-9.2-4.2-16.1-10.3-22
		c-0.5-0.5-1.2-0.8-1.9-1c-1.2-0.3-2.1,0.1-2.2,1.5c-0.2,2.9-0.1,5.8,0.9,8.6c2,5.7,5.3,11,5.5,17.3c0,0.4,0.3,1,0.7,1.2
		c1.6,1.3,3.3,0.9,5,0.3c1.5-0.5,1.6-2.1,1.8-3.4c0.2-1.7-1.6-1.4-2.5-2c-1.3-0.8-2.4-1.6-3.1-2.8c0.2-0.2,0.3-0.3,0.5-0.5
		C363.6,684.1,365.3,685,367.4,686z"/>
	<path d="M227.7,663.6c-4,6.4-6.4,13.6-9.6,20.4c-0.7,1.6-1.3,3.3-2.5,4.6c-0.4,0.4-0.7,1-1.3,0.7c-0.7-0.3-0.6-0.9-0.5-1.6
		c0.3-1.8,1.4-3.2,2.2-4.8c3.3-7.1,7.1-13.9,10.8-20.8c0.4-0.7,0.8-1.3,1.8-2c1.3,5-0.4,9.7-0.6,14.6c3.9-3.7,4.7-9.4,9.1-12.3
		c0.9,0.7,0.6,1.4,0.5,2.1c-2,8.6-3.7,17.2-4.9,25.9c-0.2,1.3-0.3,3.3-1.9,3.1c-1.7-0.2-1.6-2.2-1.3-3.6c1.3-6.1,2.6-12.2,4.6-18.1
		c0.3-1,0.6-2,0.6-3c-3.3,3.8-4.3,9.2-8.9,12.9C225.7,675.2,228.6,669.6,227.7,663.6z"/>
	<path d="M333.6,667.9c4.9,8.9,12.4,15.2,17.9,23.7c0.1-2-0.6-3.1-1.1-4.3c-2.6-5.8-5-11.7-6.9-17.8c-0.3-1.1-0.5-2.2-0.8-3.3
		c-0.1-0.5-0.6-1.1,0.3-1.4c0.6-0.2,0.8,0.4,0.9,0.9c2.8,9.2,7.9,17.6,9.9,27.2c0.2,0.8,0.7,1.6-0.1,2.8
		c-4.9-6.4-10.2-12.2-16.1-17.7c1.7,8,4.9,15.6,5,24.6c-1.3-1.6-1.6-3-1.9-4.2c-2.3-8.2-4.9-16.4-7.5-24.5
		C332.7,672.1,331.9,670.1,333.6,667.9z"/>
	<path d="M124,583.3c0.9-2.1,2.6-3.1,4.3-4.1c6.6-3.6,13.1-7.3,19.7-10.9c1-0.6,2.1-1.4,3.3-0.5c1.1,0.8,0.4,1.9,0.3,2.9
		c-0.4,5.3-2.4,10-5.7,14.2c-2.1,2.6-4.1,5.3-6.6,7.6c-1,0.9-1.9,1.9-3.4,2c2.1-2.1,3.8-4.4,5.5-6.7c1.4-2,1-3-1-4.1
		c-1.5-0.8-2.9-1.7-4.2-2.8c-1.3-1.1-2.3-1-3.6-0.2c-1.8,1.1-3.7,1.9-5.5,3C126,584.5,125.1,584.4,124,583.3z M149.3,570.2
		c-4.4,2.3-7.9,5.7-12.3,8.1c1.7,1.1,3.5,1.3,4.8,2.4c2.8,2.4,2.7,2.4,4.6-0.8c0.5-0.9,1.1-1.8,1.5-2.7
		C148.7,575,149.7,572.8,149.3,570.2z"/>
	<path d="M319.9,672.7c1.5,6.5,2.9,12.9,4.5,19.2c0.6,2.5,1.6,4.8,2.6,7.2c0.4,1.1,1.1,2.5,2.4,2.3c1.2-0.2,1.4-1.7,1.6-2.7
		c0.6-4.1,0.4-8.3-0.7-12.3c-1-3.5-2.2-7-3.3-10.5c-0.2-0.7-0.5-1.4-0.5-2.1c0-1.1-0.9-2.6,0.9-3c1.6-0.3,1.7,1.3,1.9,2.2
		c2.9,8.6,4.6,17.4,3.8,26.5c0,0.3,0,0.6-0.1,0.9c-0.5,2-1.3,4-3.6,4.3c-2.2,0.3-3.4-1.6-4.2-3.4c-1.6-3.7-3.1-7.5-3.8-11.6
		c-0.8-4.9-1.6-9.8-2.3-14.6C319,674.2,318.6,673.4,319.9,672.7z"/>
	<path d="M207.7,651.8c0.3,3.2-1.5,5.8-2.8,8.5c-2.2,4.8-4.7,9.4-9.1,12.7c-1.8,1.3-3.8,2.5-6.2,1.1c-2.9-1.7-3.7-3.1-2.5-6.3
		c3-8.3,7.9-15.1,16.3-18.8C206.6,647.7,207.6,648.4,207.7,651.8z M192.2,670.9c1.2-0.1,2.2-0.6,3-1.3c3-2.7,5.6-5.8,7.3-9.6
		c1.2-2.9,1.5-6.2,3.6-8.7c1-1.2,0.2-1.8-1.1-1.7c-0.7,0.1-1.3,0.4-2,0.7c-4.6,1.8-6.4,6.2-9.2,9.7c-1.8,2.3-2.9,4.9-3.7,7.7
		C189.6,669.6,190.5,670.9,192.2,670.9z"/>
	<path d="M145,596.5c0.7-4.1,3-8.6,7.1-12.1c1.5-1.3,3.2-2.4,5-3.3c3.9-1.9,8.7-0.9,10.5,2.7c2.2,4.4,1.7,8.2-2.1,11.5
		c-1.2,1-1.8,0-2.7-0.5c-1.1-0.8-0.4-1.5,0.2-1.9c1.8-1.5,2.7-3.4,3.2-5.7c0.6-2.9-0.6-4.8-3.6-5.2c-1-0.1-1.9-0.1-2.8,0.3
		c-4.7,2.3-8.6,5.2-9.3,11.1c-0.3,2.4-1.6,4.6-2.5,6.9c-0.6,1.6-0.2,2.3,1.6,1.9c0.9-0.2,1.9-0.3,2.8-0.4c1,0,1.7,0.6,1.9,1.5
		c0.2,0.9-0.4,1.5-1.1,1.9c-1,0.6-2.1,0.8-3.2,0.3C146.7,604,144.9,601.3,145,596.5z"/>
	<path d="M390.6,681.2c-1.7,0.7-2.8,0.5-3.4-1.2c-2.4-7.1-6.4-13.6-9-20.6c-0.8-2.1-0.3-4.3-1.4-6.2c1-0.6,1.5-0.1,1.9,0.4
		c5.4,5.5,11.8,9.7,17.7,14.7c1.5,1.3,3.2,2.5,3.8,4.5c0.2,0.8,0.9,1.7,0.1,2.5c-0.9,0.7-1.7-0.1-2.4-0.4c-2.6-1.4-4.3-3.7-6.2-5.9
		c-0.7-0.8-1.3-2.3-2.2-2c-1.4,0.3-2.7,1.3-3.9,2.2c-0.8,0.6,0,1.4,0.3,1.9C387.8,674.2,388.9,677.8,390.6,681.2z M378.7,656
		c1.1,4.2,3.4,8.1,5.8,12c0.9-0.8,1.4-1.4,2-1.9c1.1-0.8,1.1-1.6,0.1-2.5C384,661,381.4,658.5,378.7,656z"/>
	<path d="M305.1,677.8c-0.5,2.3-0.1,4.4,0.6,6.4c1.7,4.9,2.7,9.8,2.9,15c0.1,1.8-0.3,3.5-0.9,5.1c-0.2,0.6-0.4,1.4-1.2,1.2
		c-0.6-0.2-1-0.7-1-1.4c0.2-5.3-0.3-10.6-1.1-15.9c-0.8-5.2-0.5-10.5-0.9-15.8c4.2,9.3,9.7,17.8,14.6,26.7c0.5-4.2-0.4-8.1-1.5-12.1
		c-1-3.7-2.1-7.3-3.2-11c-0.4-1.5-0.8-3,1.3-4c1,2,0.9,4.3,1.3,6.4c1.4,6.6,2.7,13.3,3.9,19.9c0.3,1.4,1.1,3.5-0.5,4
		c-1.3,0.4-2-1.8-2.6-3C312.8,692.3,309,685,305.1,677.8z"/>
	<path d="M177.7,665.1c-2.1,0-4.2-0.3-6.2-1.3c-1-0.5-1.1-1-0.5-1.8c0.6-0.9,1.2-1.9,2-2.7c6.4-6.2,11-13.6,15.3-21.3
		c0.2-0.3,0.3-0.6,0.5-0.8c0.6-0.9,1.3-2,2.5-2.1c1.3,0,1.6,1.4,2.1,2.3c0.6,1.1,1.1,2.3,1.7,3.4c2.6,4.3,2.7,8.6-0.5,12.6
		c-2.6,3.3-5.4,6.5-8.7,9.2C183.5,664.7,180.6,664.9,177.7,665.1z M173.2,662.5c4,1.4,7.5,0.6,10.6-1.6c3.6-2.5,6.4-5.7,8.7-9.4
		c3.5-5.6,3.4-8.7-0.4-14c-1-1.4-1.5-1.1-2.2,0.1c-1.2,2.1-2.4,4.1-3.6,6.2C182.5,650.3,179,657,173.2,662.5z"/>
	<path d="M174.5,595.3c1.3-0.2,2.7,0,4.2,0.6c3,1.4,3.6,2.6,3.3,5.9c-0.5,7.6-5.1,12-11.7,14.8c-3.3,1.3-6.5,1.4-9.3-1.4
		c-2.5-2.5-2-5.4-1.2-8.5C161.5,600.8,168.1,595.5,174.5,595.3z M162.2,609.3c0,4.1,4.2,7.2,8,5.6c5-2.1,8.2-6.1,9.9-11.3
		c0.7-2.2-0.2-3.7-1.7-5.1c-0.9-0.8-1.9-1.4-3.2-1.5C169.9,596.7,162.2,603.9,162.2,609.3z"/>
	<path d="M362.8,660.5c3,5.6,6.6,10.3,9.9,15.3c1.7,2.6,3.8,4.9,5.2,7.7c0.6,1.3,2.2,2.1,3.5,1.9c1.3-0.2,1.7-1.8,1.9-3
		c0.3-1.6,0.1-3.2-0.5-4.7c-1.9-5.2-4.2-10.2-7.8-14.4c-1.8-2.1-2.9-4.6-5.2-7.1c1,0.2,1.3,0.1,1.4,0.3c5.2,6.2,10.6,12.3,12.7,20.5
		c0.5,1.8,0.5,3.6,0.5,5.5c0,2.1-1.1,3.6-2.9,4.3c-1.9,0.7-3.7,0.3-5.2-1.2c-4.7-4.5-7.4-10.1-10-15.9c-1-2.1-2.1-4.1-3.1-6.2
		C362.8,662.7,362,662,362.8,660.5z"/>
	<path d="M245.1,664.5c1-0.1,1.8,0.3,1.4,1.9c-2.2,8.7-4.2,17.5-7,26c-0.1,0.3-0.1,0.6-0.3,0.9c-0.3,0.6-0.5,1.3-1.3,1.1
		c-1-0.2-0.8-1-0.7-1.7c0.8-4.5,1.6-8.9,2.5-13.4c0.9-4.2,1.8-8.4,2.8-12.6C242.8,665.6,243.1,664.4,245.1,664.5z"/>
	<path d="M211.3,210c-0.9,3.4,0.9,5.7,2.7,7.9c0.5,0.6,1,1.2,1.4,2c0.4,0.8,1.9,1.8,0.8,2.6c-0.7,0.5-2.3,0.1-3.2-0.8
		c-2.1-2.3-3.6-5-4.5-8C207.8,211.5,209.1,210.6,211.3,210z"/>
	<path d="M177.4,675.3c-0.4,0-0.9,0.1-1.1-0.1c-5-5.1-10.4-9.8-14.7-15.7c-0.4-0.5-0.8-1-0.6-2.1C166,664,171.8,669.5,177.4,675.3
		C177.3,675.3,177.4,675.3,177.4,675.3z"/>
	<path d="M342.2,178.6c1.9,0.2,1.2-1.1,1-1.9c-0.4-2.2-0.9-4.4-1.5-6.5c-0.7-2.8-0.3-5.5,1-8.2c-1.3,5.3,0,10.3,1.5,15.4
		c0.2,0.7,0.4,1.6-0.2,2C343.3,179.8,342.6,179.3,342.2,178.6z"/>
	<path d="M174,152.5c4.2-1.5,8.6-1.5,12.9-0.6c1.1,0.2,2.3,0.5,3.1,1.6c-2.7-1-5.5-1.4-8.3-1.5c-1.9,0-3.8,0-5.7,0.6
		C175.3,152.8,174.6,153,174,152.5C174,152.5,174,152.5,174,152.5z"/>
	<path d="M94.2,493.4c1.5,1.5,2.3,3.4,3.5,5.1c1.3,1.7,2.5,3.5,4.5,4.5C99.7,502.5,95,496.7,94.2,493.4
		C94.2,493.4,94.2,493.4,94.2,493.4z"/>
	<path d="M210.5,613.5c-2.2,2.5-4.3,5.2-7,7.3C205.4,617.9,207.6,615.4,210.5,613.5z"/>
	<path d="M417.6,482.6c3,1.8,5.1,4.5,7.2,7.1c-0.9-0.1-1.1-1.2-2.1-1.2c-0.7-0.7-1.3-1.4-2-2.2C420.1,484.8,418.4,484.1,417.6,482.6
		z"/>
	<path d="M327.3,577.4c-0.9,0.9-1.9,1-2.8,1.2c-7.2,1.6-13.1,5.6-19,9.8c-2.3,1.7-4.6,3.4-6.4,5.7c-0.8,0.9-4.7,0.7-6.2-0.3
		c-1.5-1-3.1-2-4.4-3.3c-4.2-4.3-9.3-6.8-14.9-8.7c-9.9-3.3-19.9-6.3-30.2-8c-4.7-0.8-8.4-3-11.7-6.2c1,0.5,2,0.9,2.9,1.6
		c3.6,2.6,7.7,3.5,12,4.4c10.8,2.1,21.3,5.3,31.7,9c4.7,1.7,8.4,4.8,11.9,8.2c1.2,1.1,2.5,2,4.1,2.5c2.3,0.7,4.2,0.7,5.9-1.5
		c1.9-2.4,4.7-4.1,7.3-5.8c5.4-3.7,11-7.1,17.6-8.4C325.7,577.3,326.3,577,327.3,577.4z"/>
	<path d="M119.2,496.8c9,5.1,18.5,3.7,27.8,3.3C140.3,502.9,120.5,500.7,119.2,496.8z"/>
	<path d="M456.3,548.2c1.1-0.5,2-0.4,2.8,0.2c5.8,4.2,12.6,5.9,19.5,7.7c-6.3-4.5-12.7-8.9-18.4-14.9c2.5,0.1,3.7,1.6,5.2,2.4
		c6.9,3.6,12.9,8.5,19,13.3c0.5,0.4,1,0.8,1.4,1.3c0.5,0.6,1.2,1.1,0.7,2.1c-0.5,0.9-1.2,0.5-1.9,0.4c-3.5-0.6-6.6-2.2-9.8-3.7
		c-2.1-1-4.1-2.1-6.3-2.8c-0.7-0.2-1.3-0.6-2.2-0.2c4.8,5.2,11.4,8.5,15.7,15C478.1,568.4,458.1,551.8,456.3,548.2z"/>
	<path d="M470.5,582.3c-2.8,0.7-4.3-1.5-5.7-2.9c-5.8-6-11.9-11.8-16-19.2c-0.4-0.6-1.5-1.3-0.6-2c0.6-0.5,1.3-1.1,2.7-0.5
		c6.1,2.6,11.2,6.7,16.9,9.9c2.6,1.5,5.2,3.1,7.7,4.7c0.5,0.3,1.4,0.5,1,1.3c-0.3,0.7-1.1,0.7-1.7,0.5c-1.2-0.4-2.4-0.9-3.5-1.5
		c-1.6-0.9-3.1-2-4.7-2.8c-0.9-0.4-1.7-2.3-2.9-0.5c-0.9,1.4-2.4,2.8-0.3,4.7c2.3,2.1,4.3,4.5,6.4,6.8
		C470.2,581.2,470.6,581.6,470.5,582.3z M460.6,571.1c0.4-1.9,2.4-3.3,1-4.4c-3.1-2.4-6.6-4.4-9.9-6.6
		C453.9,564.2,457.5,567,460.6,571.1z"/>
	<path d="M464.9,536.3c1.4-0.4,1.7-1.8,3-1.8c1.4-0.1,0.9-2,2.4-2.2c-0.9,1.7,0.2,1.9,1.5,1.8c3.8-0.2,7.4,0.9,10.9,2.1
		c6.6,2.2,10.1,8.9,9.9,15.8c0,1.3,0.6,3.3-1.1,3.8c-1.3,0.4-2-1.5-3.1-2.2C480.6,547.9,473.6,541.2,464.9,536.3z M470.8,536.5
		c6.4,5.9,13.9,10,20.3,15.9C493.3,545.2,480.1,533.6,470.8,536.5z"/>
	<path d="M496.8,526.7c2.2,0.7,4,0.8,5.8-0.3c2.1-1.3,2.9-3.1,2.4-5.5c-0.5-2.2-1.6-3.8-4-4.2c-1-0.2-1.9,0.3-2.8,0.5
		c-4.5,1.2-8.9,1.5-13-1.6c-2.9-2.2-4.5-6.1-3.3-9c1-2.5,5.6-3.6,7.3-1.7c0.7,0.7,0.7,1.8-0.4,2.4c-0.8,0.4-1.6,0.5-2.6,0.5
		c-2.5-0.2-3.1,0.6-2.1,2.8c2.1,5.3,4.5,5.8,10.9,4.7c1.9-0.4,3.7-0.7,5.7-0.7c5.5,0,8,5.5,7,10.4c-0.4,2.1-4.7,4.2-7.6,4
		C497.6,528.9,497.6,528.9,496.8,526.7z"/>
	<path d="M436.2,572.4c4.1,1.3,6.3,4.7,8.8,7.6c3.4,3.8,7,7.4,10.7,11c1,0.9,1.4,0.4,2-0.3c2.2-2.4,4.4-5,8.4-5.2
		c-2.4,3.1-4.6,6-7,8.8c-1.2,1.5-2.6,1.6-4.2,0c-5.5-5.7-11.1-11.2-16.7-16.8C437,576.1,435.2,574.9,436.2,572.4z"/>
	<path d="M497.4,535.1c0,3.4-2.7,5.1-5.6,3.9c-1.7-0.7-3.2-1.7-4.7-2.8c-5.5-4.2-9.2-9.6-11.6-16c-0.5-1.3-0.4-2.7,0.4-3.6
		c0.8-0.8,2-0.5,2.9-0.1c7.8,3.5,14.3,8.3,17.9,16.3C497.2,533.6,497.2,534.6,497.4,535.1z M494.5,535.1c-0.1-1.5-0.5-2.5-0.9-3.6
		c-1.2-2.7-3.2-4.7-5.2-6.8c-2.5-2.6-5.6-4.2-8.9-5.4c-1.9-0.7-2.5-0.1-2.1,1.9c0.1,0.6,0.3,1.2,0.6,1.8c2.3,5.7,6.3,9.9,11.5,13
		c1.1,0.6,2.2,0.9,3.4,0.7C493.9,536.5,494.7,536,494.5,535.1z"/>
	<path d="M415.9,636.9c-3.5-2.9-6.2-6.1-9.3-8.9c-3.1-2.8-5.8-6.2-8.7-9.3c-2.6,1.8-3.9,4.9-7,6.6c0.5-2.1,1.3-3.7,2.3-5.1
		c2.2-2.9,4.4-5.9,6.6-8.8c0.4-0.5,0.8-1.4,1.7-1c1.1,0.6,0.1,1.2-0.1,1.8c-0.6,1.6-2.5,3-1.8,4.7c0.6,1.4,2.3,2.3,3.5,3.5
		c3.9,3.9,7.7,7.9,11.5,11.8C415.7,633.3,416.6,634.5,415.9,636.9z"/>
	<path d="M434.3,619.7c-4.1-1.2-16.8-13.3-20.8-19.6c-1.5,1.4-2.8,3.1-5.6,3.4c2.6-4.8,6.8-7.4,10.6-10.6c0.9,1.3-0.2,1.8-0.8,2.4
		c-3.3,3.4-3.2,3.3,0.2,6.6c5.1,4.8,9.8,10,15.3,14.5C434.1,617.2,433.8,618.4,434.3,619.7z"/>
	<path d="M454.2,597.1c-0.7,3.5-3.2,5.8-5.1,8.6c-0.5,0.8-2.2,1.5-3.6,0.1c-6.4-6.2-11.9-13.1-18.4-19.2c-0.7-0.7-1.5-1.5-0.5-2.9
		c2.4,1.9,5.1,3.4,7,5.9c3.3,4.3,7.1,8.2,10.8,12.2c1.1,1.2,1.7,1.1,2.8,0C450.7,597.9,450.8,597.9,454.2,597.1z"/>
	<path d="M441.9,612.6c-6-6.7-12.7-11.9-18.5-18c-1.3-1.4-2.4-3-3-4.8c-0.4-1.2,0-1.6,1.1-1.1c0.6,0.2,1.3,0.5,1.6,0.9
		c5.5,6.4,12.2,11.6,17.4,18.3C441.5,609.1,442.7,610.2,441.9,612.6z"/>
	<path d="M404.8,605.6c6.5,3.3,20.2,18.2,19.8,21.8c-1.6-0.8-2.8-2.1-4.1-3.3c-5-5.1-10.7-9.6-15-15.4
		C404.8,607.7,403.9,606.9,404.8,605.6z"/>
	<path d="M358.6,461.6c1.8,5.7,5.4,10.1,9.9,14c-0.6-6.2-1-12.2-0.9-18.4c1.2,7.9-0.3,16.2,4.3,23.4c-0.4,0.3-0.6,0.4-0.8,0.1
		c-3.1-5.2-8.2-8.6-11.3-13.9C358.5,464.8,358.3,463.5,358.6,461.6z"/>
	<path d="M362,479.6c-4.1-1.4-7.7-3.5-10.3-7.7c-0.5,2.1,0.3,3.6,0.5,5.2c0.1,1.6,1.8,2.8,1.4,5c-3-4.8-7.5-8.6-6.7-14.8
		c0.9,3.5,1.4,7.1,4.7,10.1c-0.4-4-0.8-7.5-1.1-11.1c1.2,0.1,0.8,0.8,0.9,1.3c0.7,4.7,3.5,7.9,7.6,10C360,478,361.3,478.4,362,479.6
		L362,479.6z"/>
	<path d="M363.7,433.3c-7.3,1.4-6.7,1.4-8.8-1.9C357.2,429.6,361.5,430.5,363.7,433.3z"/>
	<path d="M343.7,464.7c-0.1,4-0.1,8.1-1.6,12C342.6,472.7,343,468.7,343.7,464.7z"/>
	<path d="M361.9,479.6c1.1,0.2,1.2-0.5,0.9-1.3c-0.3-0.9-0.8-1.7-0.7-2.9c1.3,2.2,1.6,4.6,3.3,6.8
		C363.4,481.9,362.7,480.8,361.9,479.6C362,479.6,361.9,479.6,361.9,479.6z"/>
	<path d="M284.1,395.5c-1.7-6.7-1.7-13.4-2.6-20.1c0-0.2,0-0.3,0-0.5c0-4,0-4-4.1-3.7c-2.6,0.1-3.6,1.2-3.4,3.8
		c0.9,13,0.9,26,1.4,39c0.2,5,0.4,10,0.5,15.1c0,2,0.4,3.4,2.9,3.9c-3.4,0.6-3.5,0.4-3.6-2.5c-0.5-15.6-0.9-31.3-1.5-46.9
		c-0.1-3-0.4-6-0.5-9.1c-0.1-2.1,0.9-3.7,3.1-4c1.9-0.3,4.1-1,5.6-0.3c2,0.9,0.3,3.3,0.5,5c0.7,5.9,0.8,11.9,2.2,17.8
		c0.2,1.1,0.7,1,1.5,0.9c6.4-0.8,12.7-0.9,19.1-0.4c1.3,0.1,1.9-0.5,2.2-1.7c0.6-2.5,0.4-4.9,0.3-7.4c-0.3-5.4-0.7-10.8,0.1-16.2
		c0.3-2,1.4-2.6,3.2-2.3c1.4,0.2,2.8,0.7,4.2,1.1c0.9,0.3,0.9,1,0.8,1.8c-0.7,12.9,1,25.7,1.5,38.5c0.4,9.4,2,18.7,2.1,28.3
		c-2.2,0-4.4-0.2-6.4-1c-2.2-0.8-2.6-3-2.8-4.9c-0.5-3.8-0.6-7.6-1-11.5c-0.3-3.5-0.8-7-1.5-10.4c-0.5-2.4-1.8-3.7-4.1-4
		c-5.6-0.7-11.1-0.8-16.7-0.3c-3,0.2-2.5,2.6-2.3,4.4c0.6,5.7,0.4,11.3,0.5,17c0,1.8-0.1,3.5-0.1,5.3c0,4.2-0.8,4.8-5.3,3.9
		c0-0.1,0.1-0.4,0.1-0.4c4.2-0.1,4.2-0.1,4.4-4.3c0.3-7.7,0.1-15.5-0.4-23.2c-0.2-2.7,0.6-3.4,3.3-3.5c5.4-0.2,10.9,0,16.3,0.5
		c3.5,0.3,5.1,2.2,5.7,6.9c0.7,5.6,1.5,11.2,1.6,16.9c0,1.3,0.2,2.6,0.6,3.8c0.8,3,3.3,4.5,6.3,4.2c1.4-0.2,1-1,0.9-1.7
		c-0.1-5.1-0.6-10.2-1.1-15.3c-0.7-7.2-1.1-14.5-1.4-21.8c-0.2-5.7-0.6-11.5-1.1-17.2c-0.3-3.1,0.2-6.1,0.1-9.1
		c-0.1-3.1-2.6-2.2-4.1-2.8c-1.7-0.7-2.1,0.7-2.4,2.1c-1,6.7-0.3,13.4,0,20.1c0,1.1,0.1,2.2-0.2,3.3c-0.5,1.7-1.3,2.2-3.3,2.1
		C297.9,393.9,290.9,393.7,284.1,395.5z"/>
	<path d="M243.5,302.5c0.1-3.2,1.8-4.2,4.4-2.9c0.3,0.2,2,5.7,1.8,5.9c-0.2,0.2-0.6,0.3-0.8,0.3c-1.3-0.2-2.5-0.3-3.8-0.6
		C243.4,304.8,243.6,303.4,243.5,302.5z M247.1,304.5c0.5-0.1,1.7,0.5,1.4-0.9c-0.3-1.6-0.4-3.5-2.7-3.6c-1.6-0.1-1.4,1.1-1.5,2.1
		C244,304.1,245.2,304.6,247.1,304.5z"/>
	<path d="M332.7,300.4c-0.2-2.2,0.8-3.1,2.1-3.9c0.5-0.3,1.1-0.4,1.5,0.2c0.4,0.6,0.2,1.2-0.5,1.6
		C334.8,298.9,334,299.5,332.7,300.4z"/>
	<path d="M401.4,216.9c-1.5-0.3-2-0.9-1.5-2.1c1.2-2.9,1.6-5.8,1.5-8.9c0-0.7,0.3-1,0.9-1.2c2.5-0.9,3.8-3,4.9-5.3
		c0.3-0.6,0.7-1.2,1.2-1.8c1.4-1.9,2.6-1.8,3.9,0.1c1.1,1.6,1.8,3.4,1.5,5.4c-0.4,2.8-1.1,5.5-2.4,8c-1,2-2.6,3.4-5,3.8
		C404.5,215.1,402.6,215.5,401.4,216.9z"/>
	<path d="M267.8,244.4c1.9-0.3,3.6,0.5,5.3,1.2c4.8,1.9,9.3,4.6,13.7,7.3c2.6,1.6,5.3,2.9,8.1,4.1c3.3,1.5,6-0.1,8.4-2.4
		c2.1-2,4.1-4.3,6.9-5.4c-3.1,2.8-6.1,5.7-9.4,8.3c-1.7,1.4-4,1-5.9,0.2c-3.7-1.5-7.2-3.4-10.5-5.5
		C279.1,248.9,273.7,246,267.8,244.4z"/>
	<path d="M261.6,299.8c-0.8-0.1-2.1,0.9-1.9-0.8c0.2-1.9,1.9-2.5,3.5-2.6c0.7,0,2.3,0.1,2,1.1C264.9,299.3,263.6,300.4,261.6,299.8z
		"/>
</g>
<rect y="0.6" class="st0" width="595.2" height="841.4"/>
</svg>
